<?xml version="1.0" encoding="utf-8"?>
<!-- Generator: Adobe Illustrator 19.0.0, SVG Export Plug-In . SVG Version: 6.00 Build 0)  -->
<svg version="1.1" id="Layer_1" xmlns="http://www.w3.org/2000/svg" xmlns:xlink="http://www.w3.org/1999/xlink" x="0px" y="0px"
	 viewBox="-327 11.4 623.1 698.6" style="enable-background:new -327 11.4 623.1 698.6;" xml:space="preserve">
<style type="text/css">
	.st0{fill:#F2F2F2;}
	.st1{fill:#2F2E41;}
	.st2{fill:#9E616A;}
	.st3{fill:#6C63FF;}
	.st4{fill:#FFB6B6;}
	.st5{fill:#E4E4E4;}
	.st6{fill:#FFFFFF;}
	.st7{fill:#3F3D56;}
	.st8{fill:#F0F0F0;}
	.st9{fill:#CCCCCC;}
</style>
<circle class="st0" cx="251.1" cy="56.4" r="45"/>
<circle class="st1" cx="263.4" cy="33.1" r="6.4"/>
<circle class="st1" cx="253.3" cy="47.6" r="16.1"/>
<circle class="st2" cx="251.9" cy="50.6" r="13.1"/>
<path class="st1" d="M235.9,50.7c2.2,1.6,4.3,0.9,6.5,0l1-4.1l1.7,4.1c7.1,2.6,14.1,1.3,20.8-0.4c0.1-2.8-0.7-5.7-2.2-8.1
	c-4.3-7.1-13.5-9.3-20.6-5C238.4,40.1,235.7,45.3,235.9,50.7z"/>
<path class="st1" d="M262.7,27.7l1.5,1.3c3.9-0.2,7.5,2.2,8.8,5.8c0.7,2.5,0.7,5.1,0.1,7.6c-0.9,5.3-2.5,10.4-4.6,15.3
	c-1.3,3-2.9,6.1-2.4,9.4c0.7,4.5,5.5,7.4,10,7.6s8.9-1.6,13.1-3.4c-7.4,0-13.4-6-13.4-13.4c0-4.9,2.7-9.4,5.4-13.5s5.7-8.3,6.4-13.2
	c0.7-4.9-1-9.8-4.7-13.1c-3.8-3.2-9-4-13.6-2.1C264.8,18,262.2,22.7,262.7,27.7z"/>
<path class="st3" d="M219.4,80.2c1.8-3.9,5.6-6.5,9.8-6.8l3.8-0.2l0,0l9.6-5.8c-0.2,0.3,15.6,0.8,15.6,0.8l5.9,5.1l2.5,0.2
	c4.3,0.3,8.1,2.9,9.8,6.8l3.9,10.8c-18.7,15.9-46.8,13.9-63-4.6L219.4,80.2z"/>
<path class="st0" d="M206,235.6c0-24.8,20.2-44.9,45-44.9c0,0,0,0,0,0c24.9,0,45.1,20.1,45.1,45c0,24.9-20.1,45.1-45,45.1
	c-24.9,0-45.1-20.1-45.1-45C206,235.8,206,235.7,206,235.6z"/>
<path class="st1" d="M272.7,234.4c-0.3,12.6-10.5,22.6-23.1,22.8c-1.8,0-3.6,0.1-5.4,0.1v-5.2l-1.6,5.3c-1.1,0-4.9,0.1-6,0.1
	c-5.5-8.7-3.6-36.3,4.5-44.3c4.4-4.4,13-7.4,18.8-5.4c5.9,2,10.1,7.5,12,13.4C272.7,223.5,272.8,228.6,272.7,234.4z"/>
<circle class="st4" cx="251.7" cy="228" r="12.8"/>
<path class="st1" d="M260.6,224l-10.2,2.3l-2.9-8.8l0,8.8l-2.9,0.7l-1.1-5.2l-0.7,5.6l-6.2,1.6l0.4-4.4c0.6-6.7,4.7-12.6,10.9-15.4
	l0,0l14.8,7.4L260.6,224z"/>
<path class="st3" d="M219.9,259.3c1.8-3.9,5.6-6.5,9.8-6.8l3.8-0.2l0,0l9.6-5.8c-0.2,0.3,15.6,0.8,15.6,0.8l5.9,5.1l2.5,0.2
	c4.3,0.3,8.1,2.9,9.8,6.8l3.9,10.8c-18.7,15.9-46.8,13.9-63-4.6L219.9,259.3z"/>
<circle class="st0" cx="251.1" cy="414.8" r="45"/>
<circle class="st4" cx="252.3" cy="406" r="14.4"/>
<path class="st3" d="M219.5,438.6c1.8-3.9,5.6-6.5,9.8-6.8l3.8-0.2l0,0l9.6-5.8c-0.2,0.3,15.6,0.8,15.6,0.8l5.9,5.1l2.5,0.2
	c4.3,0.3,8.1,2.9,9.8,6.8l3.9,10.8c-18.7,15.9-46.8,13.9-63-4.6L219.5,438.6z"/>
<path class="st1" d="M238.3,410.3c0-1.8,0.3-3.6,0.7-5.4c0.5-1.8,1.6-3.3,3.1-4.3c0.1,0,0.2-0.1,0.2-0.1c2.8-1.4,6.2-0.2,7.6,2.6
	c-0.1-0.8-0.3-1.6-0.4-2.4l3.8,1.6l-1-2.5c1.5,0.7,2.9,1.5,4.4,2.2l-0.1-2.6c1.7,0.2,3.2,1.3,4,2.9c0.9,1.5,1.3,3.2,2.1,4.7
	c0.7,1.6,2,2.8,3.7,3.2l-0.1-0.6c1.2-4,1.3-8.3,0.2-12.4c-0.3-1.3-0.9-2.5-1.7-3.5c-0.9-1-2.2-1.4-3.5-1.1c0.2-3.6-2.6-7-6-8
	c-3.4-1-7.2,0-10.2,1.9c-3.8,2.5-6.5,6.2-7.8,10.6C235.9,401.5,236.4,406.2,238.3,410.3z"/>
<path class="st5" d="M193.2,125.6h99c0,0,0,0,0,0c2.1,0,3.9,1.7,3.9,3.9s-1.7,3.9-3.9,3.9h-99C188.2,133.4,188.2,125.6,193.2,125.6z
	"/>
<path class="st5" d="M59.8,145.8h232.5c2.1,0,3.9,1.7,3.9,3.9s-1.7,3.9-3.9,3.9H59.8C54.7,153.6,54.8,145.8,59.8,145.8z"/>
<circle class="st3" cx="-21.2" cy="139.6" r="24.8"/>
<path class="st6" d="M-17.9,152.5c-0.9,0-1.7-0.5-2.2-1.2L-33.7,131l0,0c-0.8-1.3-0.5-3,0.8-3.8c1.3-0.8,3-0.5,3.8,0.8l11.4,17.1
	l4.4-5.9c0.9-1.2,2.6-1.5,3.9-0.6s1.5,2.6,0.6,3.9l-6.8,9C-16.1,152.1-17,152.5-17.9,152.5C-17.9,152.5-17.9,152.5-17.9,152.5z"/>
<path class="st5" d="M193.2,304.9h99c2.1,0,3.9,1.7,3.9,3.9s-1.7,3.9-3.9,3.9h-99C188.2,312.6,188.2,304.8,193.2,304.9z"/>
<path class="st5" d="M59.8,325h232.5c0,0,0,0,0,0c2.1,0,3.9,1.7,3.9,3.9s-1.7,3.9-3.9,3.9H59.8C54.7,332.8,54.8,325,59.8,325z"/>
<circle class="st3" cx="-21.2" cy="318.8" r="24.8"/>
<path class="st6" d="M-17.9,331.7c-0.9,0-1.7-0.5-2.2-1.2l-13.5-20.3l0,0c-0.8-1.3-0.5-3,0.8-3.8c1.3-0.8,3-0.5,3.8,0.8l11.4,17.1
	l4.4-5.9c0.9-1.2,2.6-1.5,3.9-0.6c1.2,0.9,1.5,2.6,0.6,3.9l-6.8,9C-16.1,331.3-17,331.7-17.9,331.7
	C-17.9,331.7-17.9,331.7-17.9,331.7z"/>
<path class="st5" d="M193.2,484.1h99c2.1,0,3.9,1.7,3.9,3.9s-1.7,3.9-3.9,3.9h-99C188.2,491.9,188.2,484,193.2,484.1z"/>
<path class="st5" d="M59.8,504.3h232.5c2.1,0,3.9,1.7,3.9,3.9s-1.7,3.9-3.9,3.9H59.8C54.7,512.1,54.8,504.2,59.8,504.3z"/>
<circle class="st3" cx="-21.2" cy="498" r="24.8"/>
<path class="st6" d="M-17.9,510.9c-0.9,0-1.7-0.5-2.2-1.2l-13.5-20.3c-0.8-1.3-0.5-3,0.8-3.8c1.3-0.8,3-0.5,3.8,0.8l11.4,17.1
	l4.4-5.9c0.9-1.2,2.6-1.5,3.9-0.6s1.5,2.6,0.6,3.9l-6.8,9C-16.1,510.5-17,510.9-17.9,510.9C-17.9,510.9-17.9,510.9-17.9,510.9z"/>
<polygon class="st2" points="-127.4,366.8 -171.4,365.8 -187.4,412.8 -122.4,412.8 "/>
<polygon class="st2" points="-174.8,634.2 -155.9,634.2 -162,683.7 -174.8,683.7 "/>
<path class="st1" d="M-179.2,677.4l20.3-1.2v8.7l19.3,13.3c1.5,1,2.3,2.7,2.3,4.5c0,3-2.4,5.4-5.4,5.4h-24.1l-4.2-8.6l-1.6,8.6h-9.1
	L-179.2,677.4z"/>
<polygon class="st2" points="-152.8,634.2 -133.9,634.2 -140,683.7 -152.8,683.7 "/>
<path class="st1" d="M-157.2,677.4l20.3-1.2v8.7l19.3,13.3c1.5,1,2.3,2.7,2.3,4.5c0,3-2.4,5.4-5.4,5.4h-24.1l-4.2-8.6l-1.6,8.6h-9.1
	L-157.2,677.4z"/>
<path class="st1" d="M-122.6,403.8c10.1,47,13.7,74.9,0.2,121l-3,31v1l-6.4,73.9l-1.6,8.1l4,14.5l-5.4,8.1l-19.2,5.8l-20.9-106.9
	l-25.4-83.3c-8.8-28.4,13-74.3,13-74.3L-122.6,403.8L-122.6,403.8z"/>
<polygon class="st1" points="-139.8,595.3 -157.8,672.5 -176.8,668.8 -180,652.6 -177.4,645.8 -180,641.7 -168.1,555.4 "/>
<path class="st7" d="M-180.1,392.5c-0.9,0-1.8-0.5-2.2-1.3c-0.3-0.7-0.3-1.6,0.2-2.2l-0.2-0.2l0.3-0.4c0.7-0.8,2.2-4.5,1.9-5.1
	l-4.7-4.7c-0.4-0.4-0.6-0.9-0.6-1.5c0.1-1.6,2.1-3.3,4-4.7c0.6-0.5,1.2-1,1.7-1.4c0.1-0.1,0.3-0.3,0.3-0.4c0-0.2-0.4-0.6-0.8-0.9
	c-0.8-0.5-1.3-1.2-1.4-2.1c0-0.8,0.4-1.5,1-2c0.3-0.2,0.5-0.5,0.7-0.8c-0.1,0-0.1,0-0.2,0c-0.8-0.2-2.6-0.7-1.9-3.8
	c0-0.2-0.2-0.5-0.4-0.9c-0.6-1-1.6-2.8,0.8-5.1c2.6-2.6,0.1-7.1-5.9-18.1l-1.2-2.3c-6.7-12.5,6.6-45.3,8.2-49
	c0.1-0.2,0.2-0.4,0.4-0.6l11.7-14.6c0.5-0.6,1.2-0.9,2-0.9h24.8c1.1,0,2,0.7,2.4,1.7l3.2,8.8c0.1,0.4,0.4,0.7,0.7,0.8
	c2.4,1.2,6,17.7,14.5,26.1c9.2,9.2,1.7,18.5-0.9,22.7c-0.2,0.4-0.3,0.8-0.2,1.3c2.1,6.5-1.6,12.9-0.4,14.3c1.4,1.5,1.8,3.7,0,6
	c-1.4,1.8,1.4,4.8,0.5,7.5c-1.2,3.7,0.3,4.3,2.4,5.1c0.9,0.3,1.8,0.7,2.5,1.4c1.7,1.7-1.7,13.9-4.8,23.8c-0.3,1.1-1.3,1.8-2.4,1.8
	c0,0,0,0,0,0L-180.1,392.5z"/>
<path class="st2" d="M-42.9,322.4c3.3-3.4,3.9-8.7,1.3-12.7c-3.1-4.8-9.5-6.2-14.4-3.2l-32.6,7.4L-94,332l35.2-10.7
	c0.4,0.5,0.8,0.9,1.2,1.4C-53.4,326.6-46.9,326.5-42.9,322.4L-42.9,322.4z"/>
<path class="st7" d="M-130.9,346.2l-28-49c-3-5.3-2-11.9,2.5-16l0,0c0.6-0.5,1.2-1,1.9-1.5c6.1-3.8,14.1-1.9,17.9,4.2l20,32.3
	l18.9-4.8l6,2.1l3.7-4.9l17.9,0.1l5.2,17.5L-130.9,346.2z"/>
<path class="st2" d="M-90.5,405.9c4.8-0.1,8.8-3.5,9.7-8.2c1.1-5.6-2.5-11.1-8.2-12.3l-28.6-17.3l-16.5,9.3l32.8,16.7
	c-0.1,0.6-0.1,1.2-0.1,1.8C-101,401.7-96.2,406.1-90.5,405.9L-90.5,405.9z"/>
<path class="st7" d="M-170.4,362.1l13.8-54.8c1.5-5.9,6.8-10,12.9-9.8l0,0c0.8,0,1.6,0.1,2.4,0.3c7,1.5,11.5,8.4,10,15.4l-8,37.1
	l17,9.6l2.8,5.7l6.1-1l12.8,12.5l-8.4,16.2L-170.4,362.1z"/>
<circle class="st2" cx="-155.4" cy="240.8" r="23.8"/>
<path class="st1" d="M-159,211.8c13.3-3.5,26.9,4.4,30.4,17.6l0,0l-9.1,2.4l-3.2-5.1l1.5,5.5l-5,1.3c0.8,10.7,5.4,23.5,11.7,35.9
	c-2.8-0.8-5.5-1.4-8.3-1.9l-4.8-7.1l0.2,6.3c-10.9-1.5-21.9-1.5-32.8,0c-8.5-8.4-13.2-17.1-7.8-26.4c-2.9-11,2.6-22,12.4-24.6
	l11-2.9l1-0.3L-159,211.8C-159,211.8-159,211.8-159,211.8z"/>
<circle class="st1" cx="-179.4" cy="215.3" r="11.2"/>
<path class="st8" d="M-295.1,706.2c0.1,0.2,0.1,0.3,0.2,0.4c0,0.1,0,0.2-0.1,0.3c0,0.1-0.1,0.3-0.1,0.4v0c-0.1,0.2-0.1,0.5-0.2,0.7
	l1.3,0c0.1,0,0.1,0.1,0.2,0.1l33.7,0.3c0.4-0.5,0.9-1,1.3-1.5c3.8-5.1,5.4-12,7.3-18.2c1.4-4.5,3.1-8.9,5.2-13.2v0
	c5.2-10.7,12.3-20.3,21.1-28.3c0.3-0.3,0.6-0.5,0.8-0.8c1.3-1.2-0.2-2.9-3.2-4.5c-0.4-0.2-0.7-0.4-1.1-0.5c-5.8-2.6-15.6-4.1-23-0.4
	c0,0,0,0-0.1,0h0c-6.1,3.2-11.6,7.2-16.4,12.1c-1.9,1.9-3.6,3.9-5.3,5.9c-0.7-2.6-1.4-5.2-1.9-7.8c-2-10.3-2.3-20.8-0.9-31.1
	c0.2-1.3,0.1-2.6-0.3-3.8c-0.1-0.3-0.2-0.6-0.3-0.9c-0.6-1.5-1.7-2.7-3-3.6c-0.2-0.2-0.5-0.3-0.8-0.5c-3.5-2.1-7.9-1.3-10.6,1.7
	c-3.7,4.2-6.8,8.9-9.2,13.9c-3,6.2-5,12.8-5.9,19.7c-2.7,20.1,3,40.4,10.9,59.1C-295.2,705.9-295.1,706-295.1,706.2z"/>
<path class="st6" d="M-295,706.9C-295,706.8-294.9,706.8-295,706.9c0.1-0.1,0.1-0.1,0.1-0.1c0.3-0.2,0.6-0.4,0.9-0.6c0,0,0,0,0,0
	c0.1,0,0.1-0.1,0.2-0.1h0c4.5-2.7,9.7-3.3,14.8-4.3c2.5-0.5,4.9-1.2,7.2-2.2c3.5-1.6,6.4-4.3,7.3-8.2c0.8-3.4,0.1-6.8-0.2-10.2
	c0-0.6-0.1-1.1-0.1-1.7c-0.2-2.9,0.3-5.9,1.4-8.6c1.5-3.4,3.5-6.5,6-9.2c1.6-1.8,3.2-3.4,4.9-5c0.2-0.2,0.5-0.4,0.7-0.6
	c6.8-6.1,14.6-11.1,23.1-14.7c0.4,0.2,0.7,0.3,1.1,0.5c-0.7,0.3-1.5,0.6-2.2,0.9c-0.3,0.1-0.6,0.3-0.8,0.4
	c-7.6,3.5-14.6,8.1-20.8,13.7c0,0,0,0,0,0c-0.1,0-0.1,0.1-0.2,0.2h0c-1.4,1.3-2.8,2.7-4.2,4.1c-2.6,2.6-4.7,5.6-6.4,8.9
	c-1.3,2.8-1.9,5.8-1.8,8.8c0,0.3,0,0.6,0,0.9c0,0.2,0,0.5,0,0.7c0.3,3.3,1,6.7,0.4,10.1c-0.6,3.5-2.7,6.5-5.6,8.3
	c-3.6,2.4-7.9,3.3-12,4.1c-0.9,0.2-1.7,0.3-2.6,0.5c0,0,0,0,0,0c-2.1,0.4-4.2,0.9-6.2,1.7c0,0,0,0,0,0c-1.6,0.6-3.1,1.4-4.5,2.4
	c-0.1,0-0.1,0.1-0.2,0.1c-0.2,0-0.5-0.1-0.5-0.4C-295.1,707.1-295.1,707-295,706.9z"/>
<path class="st6" d="M-251.4,656.4c-3.5-4.3-3.4-10.6,0.3-14.7c0.4-0.4-0.3-1-0.7-0.6c-4,4.5-4.2,11.1-0.4,15.8
	C-251.8,657.4-251,656.9-251.4,656.4z"/>
<path class="st6" d="M-264.1,678.9c-0.6-0.1-0.8,0.8-0.2,0.9c6.1,0.7,12.3-0.9,17.3-4.5c0.5-0.3,0-1.1-0.5-0.8
	C-252.3,678-258.2,679.6-264.1,678.9L-264.1,678.9z"/>
<path class="st6" d="M-230.5,642.4C-230.5,642.4-230.5,642.4-230.5,642.4c0.2-0.1,0.5-0.1,0.6,0.1c0,0.1,0.1,0.2,0.1,0.3
	c1.1,1.9,3.1,3.2,5.3,3.5c0.1,0,0.1,0,0.2,0c-0.3,0.3-0.6,0.5-0.8,0.8c-2.3-0.4-4.3-1.9-5.4-3.9c0,0,0-0.1-0.1-0.1
	C-230.8,642.8-230.7,642.6-230.5,642.4z"/>
<path class="st6" d="M-295.2,705.7c0.4-1.2,0.9-2.4,1.5-3.5c3.3-6,9.4-10.2,12.6-16.4c1.8-3.4,2.5-7.3,0.9-10.9
	c-0.5-1-1.1-2-1.8-2.9c-1.4-1.8-3-3.4-4.6-5.1c-0.4-0.4-0.7-0.8-1.1-1.3c-1.9-2.2-3.3-4.9-4.1-7.7c-0.9-3.6-1.1-7.3-0.7-10.9
	c0.2-2.3,0.5-4.7,0.9-7c0-0.3,0.1-0.6,0.2-0.9c1.1-5.5,2.7-10.9,4.9-16c1.7-4,3.7-7.9,6-11.6c0.3,0.2,0.5,0.3,0.8,0.5
	c-0.7,1.1-1.4,2.3-2,3.4c-0.2,0.3-0.3,0.5-0.4,0.8c-4,7.3-6.8,15.3-8.3,23.5c0,0.1,0,0.2,0,0.3c-0.4,1.9-0.6,3.8-0.8,5.8
	c-0.5,3.7-0.4,7.4,0.3,11c0.6,3,2,5.7,3.9,8.1c0.2,0.2,0.4,0.5,0.6,0.7c0.1,0.2,0.3,0.4,0.5,0.6c1.5,1.7,3.2,3.3,4.7,5.2
	c0.7,0.8,1.2,1.7,1.7,2.6c1.6,3.1,1.8,6.8,0.5,10c-1.4,4.1-4.3,7.4-7.2,10.5c-3.2,3.5-6.6,7-8,11.7c-0.1,0.2-0.3,0.3-0.5,0.3
	c-0.1,0-0.2-0.1-0.3-0.1c-0.1-0.1-0.2-0.2-0.2-0.3C-295.2,705.8-295.2,705.7-295.2,705.7z"/>
<path class="st6" d="M-290.8,639.3c-5.4-1.3-9-6.4-8.6-11.9c0.1-0.6-0.9-0.6-0.9-0.1c-0.5,6,3.4,11.4,9.2,12.9
	C-290.5,640.3-290.2,639.4-290.8,639.3z"/>
<path class="st6" d="M-287.1,665.7c5.3-3.1,9.3-8.1,11.1-14c0.2-0.6-0.7-0.9-0.9-0.3c-1.7,5.7-5.5,10.5-10.6,13.5
	C-288,665.1-287.6,666-287.1,665.7z"/>
<path class="st6" d="M-282.6,615.5c0.1-0.2,0.3-0.4,0.6-0.3c0.1,0,0.2,0.1,0.3,0.1c1.6,0.7,3.3,0.8,5,0.2c0.1,0.3,0.2,0.6,0.3,0.9
	c-1.9,0.6-3.9,0.6-5.7-0.3c0,0-0.1,0-0.1,0C-282.5,616-282.7,615.7-282.6,615.5z"/>
<path class="st9" d="M-325.8,710C-325.8,710-325.8,710-325.8,710c-0.7,0-1.2-0.5-1.2-1.2s0.5-1.2,1.2-1.2h348c0,0,0,0,0,0
	c0.7,0,1.2,0.5,1.2,1.2s-0.5,1.2-1.2,1.2H-325.8L-325.8,710z"/>
</svg>
