<?xml version="1.0" encoding="utf-8"?>
<!-- Generator: Adobe Illustrator 19.0.0, SVG Export Plug-In . SVG Version: 6.00 Build 0)  -->
<svg version="1.1" id="Layer_1" xmlns="http://www.w3.org/2000/svg" xmlns:xlink="http://www.w3.org/1999/xlink" x="0px" y="0px"
	 viewBox="-87 -38.5 1104.5 797.5" style="enable-background:new -87 -38.5 1104.5 797.5;" xml:space="preserve">
<style type="text/css">
	.st0{fill:#3F3D56;}
	.st1{fill:#2F2E41;}
	.st2{fill:#FBBEBE;}
	.st3{fill:#575A89;}
	.st4{opacity:0.4;enable-background:new    ;}
	.st5{fill:#6C63FF;}
	.st6{fill:#F2F2F2;}
	.st7{fill:#E6E6E6;}
</style>
<title>searching</title>
<rect x="48.6" y="349.9" class="st0" width="9.8" height="388.3"/>
<path class="st0" d="M55,154c0,0,95.5,110.5,94.9,246.3S52.8,645.8,52.8,645.8s-95.5-110.5-94.9-246.3S55,154,55,154z"/>
<rect x="245.2" y="532.7" class="st0" width="5.1" height="199.7"/>
<path class="st0" d="M248.5,431.9c0,0,49.1,56.8,48.8,126.7s-50,126.2-50,126.2s-49.1-56.8-48.8-126.7S248.5,431.9,248.5,431.9z"/>
<ellipse class="st0" cx="145.5" cy="738" rx="137" ry="21"/>
<path class="st1" d="M128.3,306.9c-0.9,11.1,28.5,9.8,59.4,10.8c4.1,0.2,8.2,0.1,12.4-0.2l3.2-17.4l5.2,16.2
	c28.9-6.5,10.4-33.4-3-61.2c-14.4-29.9-36.7-27-36.7-27s-23,0.9-34.6,20.5C123,267.4,129.5,292.2,128.3,306.9z"/>
<path class="st2" d="M146,277.5c7,16-19,33-19,33l22,48c0,0,30-18,21-35s6-38,6-38L146,277.5z"/>
<circle class="st2" cx="166" cy="268.5" r="26"/>
<path class="st2" d="M241.5,308.9l-21.6-31c0,0-15.5-33.8-4.4-35.2s18.7,27.9,18.7,27.9l21.7,28L241.5,308.9z"/>
<polygon class="st2" points="128,668.5 124,712.5 139,708.5 146,671.5 "/>
<polygon class="st2" points="-25,623.5 -52,658.5 -43,673.5 -32,668.5 -5,631.5 "/>
<path class="st3" d="M134.9,304.3l-12.9-1.8l0,0c-16.6,17.8-24.8,41.8-22.8,66.1l2.8,32.9l74,15l9-6c9-8,11-23,11-23s11-55,8-58
	s-35.3-9-35.3-9l-16.7,22L134.9,304.3z"/>
<path class="st3" d="M194,385.5c22,6,49-11,72-40c19.6-24.7-7.2-49.3-15.6-56.1c-1.5-1.2-2.4-1.9-2.4-1.9l-17,14c0,0,6,6,7,9
	s0,4-4,5s-2,2,0,6s-6,6-6,6l-23,2l-5,2L194,385.5z"/>
<path class="st1" d="M102,401.5l-4,9c0,0-126,200-131,209s38,25,55,32s99-164,99-164s-24,172-15,182s25,8,54,6s6-133,13-153
	c4.3-12.9,6.7-26.4,7-40c0,0,1-8,4-24s-6-33-6-33v-14L102,401.5z"/>
<path class="st1" d="M122,706.5l-4,19c0,0,10,18,26,20s10-18,10-18s-8-17-8-22s-16-4-16-4L122,706.5z"/>
<path class="st1" d="M-42,662.5c-2-7-13-6-13-6l-17,13c0,0-15,10-15,23s24,5,25,3s22-8,29-9s8-17,9-23s-13,3-13,3
	S-40,669.5-42,662.5z"/>
<circle class="st1" cx="166" cy="228.1" r="16.6"/>
<path class="st1" d="M169.5,240.3c0.6,0.1,1.2,0.1,1.7,0.1c0,0,0,0,0,0c9.2,0,16.6-7.4,16.6-16.6c0-9.2-7.4-16.6-16.6-16.6
	c-0.6,0-1.2,0-1.7,0.1c8.4,0.9,14.9,8,14.9,16.5C184.3,232.3,177.9,239.4,169.5,240.3z"/>
<polygon class="st1" points="138.3,267.7 164.7,268.3 167.4,250.5 171.7,267.2 179.2,267.5 179.2,257.1 183.7,267.7 199.8,268.3 
	193.3,239.7 162,234.8 139.3,246.7 "/>
<path class="st2" d="M141.2,395.8l31.9,4.9c0,0,29.1-4.2,30.8,7.8s-28.2,6.2-28.2,6.2l-35-0.9L141.2,395.8z"/>
<path class="st3" d="M127.5,303l4.5,25.6l9.4,60.3l8.8,8.2l-9.6,23.7c0,0-18,0.5-42.7-11.2c-21-9.9,0.1-82.1,7-103.7
	c1.1-3.5,4.6-5.7,8.2-5.1L127.5,303z"/>
<polygon class="st4" points="119.5,387 158.5,396 123.5,381 119.5,341 "/>
<path class="st0" d="M323.1,262.5L323.1,262.5c-10.9,3.3-22.5,2.9-33.1-1.1l-5.8-2.2l0,0l-57.4,16c0,0,0,0,0,0
	c-2.2,0.6-4.5-0.7-5.1-2.9l-4.5-16.3c-0.6-2.2,0.7-4.5,2.9-5.1l57.4-16.8l0.2-0.2l3.3-5.1c6.3-9.8,16.1-16.9,27.4-19.9l0,0
	L323.1,262.5z"/>
<ellipse transform="matrix(0.2808 0.9598 -0.9598 0.2808 426.9949 -60.8902)" class="st3" cx="254.1" cy="254.5" rx="3.5" ry="6.6"/>
<circle class="st0" cx="250.8" cy="255.6" r="2.4"/>
<ellipse transform="matrix(0.3084 0.9512 -0.9512 0.3084 442.6765 -136.9696)" class="st5" cx="315.5" cy="236" rx="28.1" ry="12.7"/>
<path class="st4" d="M324.9,262.4c-0.2,0.1-0.5,0.2-0.7,0.3c-6.7,2.2-16-8-20.7-22.8s-3.3-28.5,3.4-30.6c0.4-0.1,0.7-0.2,1.1-0.2
	c-6.1,2.9-7.3,16.1-2.7,30.4C309.8,253.3,318.3,263.2,324.9,262.4z"/>
<path class="st5" d="M324.5,263L536,306.6c58.4,14.5,135.5,17.4,211.6,44.9C1095.7,477.3,1035.5,241,957,95.4
	C905.7,0.1,792.7-64.8,650.2-28.2C591.5-13.1,541.1,15.2,504,50.6C482.9,70.8,460.8,90,437.7,108L307.5,209L324.5,263z"/>
<circle class="st6" cx="698.5" cy="32" r="7"/>
<polygon class="st6" points="562.5,48.5 564.3,48.5 564.3,50.4 564.7,50.4 564.7,48.5 566.5,48.5 566.5,48.2 564.7,48.2 564.7,46.4 
	564.3,46.4 564.3,48.2 562.5,48.2 "/>
<polygon class="st6" points="379.5,200.5 381.3,200.5 381.3,202.4 381.7,202.4 381.7,200.5 383.5,200.5 383.5,200.2 381.7,200.2 
	381.7,198.4 381.3,198.4 381.3,200.2 379.5,200.2 "/>
<polygon class="st6" points="392.5,247.5 394.3,247.5 394.3,249.4 394.7,249.4 394.7,247.5 396.5,247.5 396.5,247.2 394.7,247.2 
	394.7,245.4 394.3,245.4 394.3,247.2 392.5,247.2 "/>
<polygon class="st6" points="951.5,287.5 953.3,287.5 953.3,289.4 953.7,289.4 953.7,287.5 955.5,287.5 955.5,287.2 953.7,287.2 
	953.7,285.4 953.3,285.4 953.3,287.2 951.5,287.2 "/>
<polygon class="st6" points="871.5,69.5 873.3,69.5 873.3,71.4 873.7,71.4 873.7,69.5 875.5,69.5 875.5,69.2 873.7,69.2 873.7,67.4 
	873.3,67.4 873.3,69.2 871.5,69.2 "/>
<polygon class="st6" points="560.5,255.5 562.3,255.5 562.3,257.4 562.7,257.4 562.7,255.5 564.5,255.5 564.5,255.2 562.7,255.2 
	562.7,253.4 562.3,253.4 562.3,255.2 560.5,255.2 "/>
<polygon class="st6" points="751.5,5.5 753.3,5.5 753.3,7.4 753.7,7.4 753.7,5.5 755.5,5.5 755.5,5.2 753.7,5.2 753.7,3.4 
	753.3,3.4 753.3,5.2 751.5,5.2 "/>
<path class="st7" d="M749.1,163.1l2.3,0.2c0.4-4.6,1-9.2,1.7-13.8l-2.3-0.4C750.1,153.7,749.5,158.4,749.1,163.1z"/>
<path class="st7" d="M753.4,135.4l2.3,0.5c1-4.5,2.2-9,3.5-13.4l-2.2-0.7C755.7,126.3,754.5,130.8,753.4,135.4z"/>
<path class="st7" d="M761.5,108.5l2.1,0.8c1.6-4.3,3.4-8.6,5.4-12.8l-2.1-1C765,99.8,763.2,104.2,761.5,108.5z"/>
<path class="st7" d="M773.2,83.1l2,1.1c2.2-4,4.6-8.1,7-11.9l-1.9-1.2C777.8,74.9,775.4,79,773.2,83.1z"/>
<path class="st7" d="M788.3,59.5l1.8,1.4c2.7-3.7,5.6-7.4,8.6-10.9l-1.8-1.5C794,52,791,55.7,788.3,59.5z"/>
<path class="st7" d="M806.4,38.1l1.6,1.6c3.2-3.3,6.6-6.5,10-9.6l-1.5-1.7C813.1,31.5,809.7,34.8,806.4,38.1z"/>
<path class="st7" d="M827.3,19.4l1.4,1.8c3.6-2.8,7.4-5.6,11.2-8.1l-1.3-1.9C834.8,13.8,831,16.6,827.3,19.4z"/>
<path class="st7" d="M850.6,3.8l1.2,2c2.3-1.3,4.7-2.7,7.1-3.9v-2.6C856,0.7,853.3,2.2,850.6,3.8z"/>
<path class="st7" d="M750.7,184.3l-2.3,0c0-2.3,0-4.6,0-6.9l2.3,0C750.6,179.8,750.6,182.1,750.7,184.3z"/>
<path class="st7" d="M884.1,360.1l2.3,0.2c0.4-4.6,1-9.2,1.7-13.8l-2.3-0.4C885.1,350.7,884.5,355.4,884.1,360.1z"/>
<path class="st7" d="M888.4,332.4l2.3,0.5c1-4.5,2.2-9,3.5-13.4l-2.2-0.7C890.7,323.3,889.5,327.8,888.4,332.4z"/>
<path class="st7" d="M896.5,305.5l2.2,0.8c1.6-4.3,3.4-8.6,5.3-12.8l-2.1-1C900,296.8,898.2,301.2,896.5,305.5z"/>
<path class="st7" d="M908.2,280.1l2,1.1c2.2-4,4.6-8.1,7-11.9l-1.9-1.2C912.8,271.9,910.4,276,908.2,280.1z"/>
<path class="st7" d="M923.3,256.5l1.8,1.4c2.7-3.7,5.6-7.4,8.6-10.9l-1.8-1.5C929,249,926,252.7,923.3,256.5z"/>
<path class="st7" d="M941.4,235.1l1.6,1.6c3.2-3.3,6.6-6.5,10-9.6l-1.5-1.7C948.1,228.5,944.7,231.8,941.4,235.1z"/>
<path class="st7" d="M962.3,216.4l1.4,1.8c3.6-2.8,7.4-5.6,11.2-8.1l-1.3-1.9C969.8,210.8,966,213.6,962.3,216.4z"/>
<path class="st7" d="M985.6,200.8l1.2,2c2.3-1.3,4.7-2.6,7.1-3.9v-2.6C991,197.7,988.3,199.2,985.6,200.8z"/>
<path class="st7" d="M885.7,381.3l-2.3,0c0-2.3,0-4.6,0-6.9l2.3,0C885.6,376.8,885.6,379.1,885.7,381.3z"/>
<path class="st7" d="M422.1,261.1l2.3,0.2c0.4-4.6,1-9.2,1.7-13.8l-2.3-0.4C423.1,251.7,422.5,256.4,422.1,261.1z"/>
<path class="st7" d="M426.4,233.4l2.3,0.5c1-4.5,2.2-9,3.5-13.4l-2.2-0.7C428.7,224.3,427.5,228.8,426.4,233.4z"/>
<path class="st7" d="M434.5,206.5l2.2,0.8c1.6-4.3,3.4-8.6,5.3-12.8l-2.1-1C438,197.8,436.2,202.2,434.5,206.5z"/>
<path class="st7" d="M446.2,181.1l2,1.1c2.2-4,4.6-8.1,7-11.9l-1.9-1.2C450.8,172.9,448.4,177,446.2,181.1z"/>
<path class="st7" d="M461.3,157.5l1.8,1.4c2.7-3.7,5.6-7.4,8.6-10.9l-1.8-1.5C467,150,464,153.7,461.3,157.5z"/>
<path class="st7" d="M479.4,136.1l1.7,1.6c3.2-3.3,6.6-6.5,10-9.6l-1.5-1.7C486.1,129.5,482.7,132.8,479.4,136.1z"/>
<path class="st7" d="M500.3,117.4l1.4,1.8c3.6-2.8,7.4-5.6,11.2-8.1l-1.3-1.9C507.8,111.8,504,114.6,500.3,117.4z"/>
<path class="st7" d="M523.6,101.8l1.2,2c2.3-1.3,4.7-2.6,7.1-3.9v-2.6C529,98.7,526.3,100.2,523.6,101.8z"/>
<path class="st7" d="M423.7,282.3l-2.3,0c0-2.3,0-4.6,0-6.9l2.3,0C423.6,277.8,423.6,280.1,423.7,282.3z"/>
<polygon class="st6" points="868.2,161.7 869.9,161.7 869.9,163.4 870.2,163.4 870.2,161.7 871.9,161.7 871.9,161.4 870.2,161.4 
	870.2,159.7 869.9,159.7 869.9,161.4 868.2,161.4 "/>
<polygon class="st6" points="887.7,264.1 889.4,264.1 889.4,265.8 889.7,265.8 889.7,264.1 891.4,264.1 891.4,263.7 889.7,263.7 
	889.7,262 889.4,262 889.4,263.7 887.7,263.7 "/>
<polygon class="st6" points="945.1,353.8 946.7,353.8 946.7,355.5 947.1,355.5 947.1,353.8 948.8,353.8 948.8,353.4 947.1,353.4 
	947.1,351.7 946.7,351.7 946.7,353.4 945.1,353.4 "/>
<path class="st0" d="M805.1,264c5.9,21.1-6.4,43.1-27.5,49c-21.1,5.9-43.1-6.4-49-27.5c-37.6,14.8-80,10.1-113.5-12.4
	c-56.3-37.9-71.2-114.2-33.3-170.4c37.9-56.3,114.2-71.2,170.4-33.3c56.3,37.9,71.2,114.2,33.3,170.4
	C795.1,244.8,802.2,253.6,805.1,264z"/>
<path class="st5" d="M728.2,123.1c4.6,8.6-1.9,19-11.6,19l0,0c-5.2,0.1-9.9-2.9-12.1-7.6c-3.1-6.8-9.8-10.9-18.3-10.9
	c-11.2,0-20.2,6.8-20.2,16.1s5.3,14.1,18,21.7c13.6,8,19,17.6,17.7,33l0,0.7c-0.1,3.2-2.7,5.7-5.9,5.7h-14.4l0,0
	c-3.3,0-5.9-2.7-5.9-5.9l0,0c0-9.6-4.4-15.2-17.5-22.7c-13.9-8.2-21.1-18.5-21.1-33.3c0-22.4,19.4-38.1,47.5-38.1
	C705.8,100.9,721,109.5,728.2,123.1z M688,245.1c-8.9,0-16.1-6.8-16.1-15.5s7.2-15.5,16.1-15.5c8.9,0,16.1,6.8,16.1,15.5
	C704.1,238.3,697,245.1,688,245.1z"/>
</svg>
