<?xml version="1.0" encoding="utf-8"?>
<!-- Generator: Adobe Illustrator 19.0.0, SVG Export Plug-In . SVG Version: 6.00 Build 0)  -->
<svg version="1.1" id="Layer_1" xmlns="http://www.w3.org/2000/svg" xmlns:xlink="http://www.w3.org/1999/xlink" x="0px" y="0px"
	 viewBox="-206 72.6 865.7 576.4" style="enable-background:new -206 72.6 865.7 576.4;" xml:space="preserve">
<style type="text/css">
	.st0{fill:#FFB6B6;}
	.st1{fill:#F2F2F2;}
	.st2{fill:#2F2E41;}
	.st3{fill:#E6E6E6;}
	.st4{fill:#CCCCCC;}
	.st5{fill:#FFFFFF;}
	.st6{fill:#E4E4E4;}
	.st7{fill:#3F3D56;}
	.st8{fill:#6C63FF;}
</style>
<path class="st0" d="M109.9,392.7c5.3,1.1,10.6-1.5,12.9-6.4c2.7-5.9,0.2-12.8-5.7-15.6L90.4,344l-20.6,5.8l31.5,27.1
	c-0.2,0.6-0.4,1.3-0.6,2C99.5,385.2,103.5,391.4,109.9,392.7L109.9,392.7z"/>
<path class="st1" d="M-85.8,565.5c5.5,4,10.5,8.6,14.9,13.8c15.5,18.9,22,43.7,17.6,67.8l-15.6-9.5c-15.1-1.7-28.6-10.2-36.6-23.1
	c-12.6-20.5-10.3-49.8-28.9-65c13.5,0.1,26.8,3.4,38.7,9.8l1.1,25.7C-94.5,585.1-89.5,575.4-85.8,565.5z"/>
<polygon class="st0" points="-54.4,579.6 -33.6,579.6 -40.3,633.9 -54.4,633.9 "/>
<path class="st2" d="M-58,629.3l4,0l15.5-6.3l8.3,6.3h0c9.8,0,17.7,7.9,17.7,17.7v0.6l-45.5,0L-58,629.3z"/>
<polygon class="st0" points="11.1,579.6 31.9,579.6 25.2,633.9 11.1,633.9 "/>
<path class="st2" d="M7.5,629.3l4,0L27,623l8.3,6.3h0c9.8,0,17.7,7.9,17.7,17.7v0.6l-45.5,0L7.5,629.3z"/>
<path class="st2" d="M30.1,370l3.7,13.9v3.9c-0.6,1.4-0.9,2.8-0.8,4.3c0,2.9,1,100.2,1,100.2l4.8,92.2c0,0,0,5.1,1,6.1
	s0,1.9-2.4,6.7s-2.5,3.9-0.5,6.8s-1.9,11-1.9,11L6,614.7l1-4.8c1-4.8,0,0-2.9-2.9s1-1.9,1.9-5.8s1-2.9-1-4.8s-1.9-84.8-1.9-84.8
	l-27.9-94.4l-11.6,96.3c0,0,5.8,74.2,5.8,76.1c0.2,2,0.6,4,1.2,6c0,0,1.7,1.7,1.7,2.7s-1.9,6.7-1.9,7.7s-1.8,10.6-1.8,10.6h-23.3
	c-1.5-2-3.1-3.9-4.8-5.8c-1.9-1.9,0,0,1.9-4.8s0-2.9-1.9-4.8s-8.7-97.3-8.7-97.3l-9.6-54.9c0,0,2.9-6.7,4.1-8s-8.9-12.3-7-19
	s0-6.7-3.9-10.6s-1.9-18.3-1.9-18.3c-5.7-24.3-5.4-44.8,12-54.2l91.7-2.3L30.1,370z"/>
<path class="st3" d="M47.4,289.9l-14.5-64.4c-1.3-12.2-7.4-23.4-17-31.1l0,0l-5,114l84.5,65.5l15.5-12.5L47.4,289.9z"/>
<path class="st3" d="M24.6,207.6c0.8-4.4-1.1-8.8-4.8-11.3l-30.9-20.9l-9-16.2l-25.7-6.5l-9.9,11l-32.3,9.3c-6.3,2-10.2,8.4-9,14.9
	c10,55.8,14.6,108.1,9.9,154.6c10.9,6.7,22.7,2.6,34.5,6.5c26,8.7,53.6,20.3,83.5,16.5C17.5,313.9,15.3,260,24.6,207.6z"/>
<path class="st0" d="M-64.5,379.8c4.8,2.5,10.6,1.4,14.1-2.6c4.2-4.9,3.7-12.3-1.2-16.6L-70,327.6l-21.4,0l22.9,34.7
	c-0.4,0.5-0.8,1.1-1.1,1.7C-72.5,369.8-70.3,376.8-64.5,379.8L-64.5,379.8z"/>
<path class="st3" d="M-89.1,286.4l1-114l0,0c-16.8,9.3-27.7,26.6-28.8,45.8l-4.2,74.2l49,73l14-18L-89.1,286.4z"/>
<circle class="st0" cx="-22.9" cy="117.1" r="31.3"/>
<path class="st2" d="M2.9,100.4c2.4,1.8,4.2,4.4,5.2,7.2c0.4-4.7,0.4-9.5,0.1-14.2c-0.4-3.3-2.7-4.1-5.4-4.9
	c-2.4-0.8-4.9-7.7-5.6-10.9c-9.9-9.6-27.3-3.1-39.1,0.3c-6.5,1.8-10.2,4.2-10.5,5.6l-0.1,0.3l-0.3,0.1c-5,2.5-5.9,10.3-5.9,16.5
	c0.1,11.6,4.1,24.8,6.4,25.8c0.1,0.1,0.1,0,0.2,0l0,0c3.4-2.7,7.5,0.2,9.4,1.8c2.2-14.8,14.3-26.2,29.2-27.6c2.4-0.2,4.7-0.6,7-1.2
	c1.2-0.3,2.4-0.5,3.6-0.5C-0.9,98.6,1.2,99.2,2.9,100.4z"/>
<path class="st4" d="M-206,647.8c0-0.7,0.5-1.2,1.2-1.2h863.3c0.7,0,1.2,0.5,1.2,1.2s-0.5,1.2-1.2,1.2h-863.3c0,0,0,0,0,0
	C-205.5,649-206,648.5-206,647.8C-206,647.8-206,647.8-206,647.8z"/>
<path class="st3" d="M287.8,182.9l-32,142.4c0.8,0.8,1.9,1.4,3,1.7L397,358.1l32.3-143.4c1.5-6.6-2.7-13.1-9.2-14.6l-117.6-26.5
	C295.8,172.2,289.3,176.3,287.8,182.9z"/>
<path class="st5" d="M287,230.2l-22.1,98.2L387.7,356L418,221.2c1.3-6-2.4-11.9-8.4-13.3l-64.5-14.5
	C318.9,187.6,292.9,204,287,230.2z"/>
<path class="st6" d="M288.5,321.1c-1.5-0.3-2.9,0.6-3.2,2.1c-0.3,1.5,0.6,2.9,2.1,3.2l80.9,18.2c0,0,0,0,0,0
	c1.5,0.3,2.9-0.6,3.2-2.1c0.3-1.5-0.6-2.9-2.1-3.2L288.5,321.1C288.5,321.1,288.5,321.1,288.5,321.1z"/>
<path class="st6" d="M290.9,310.7c-1.5-0.3-2.9,0.6-3.2,2c-0.3,1.5,0.6,2.9,2,3.2l80.9,18.2l0,0c1.5,0.3,2.9-0.6,3.2-2
	c0.3-1.5-0.6-2.9-2-3.2L290.9,310.7L290.9,310.7z"/>
<path class="st6" d="M339,310.5c-1.5-0.3-2.9,0.6-3.2,2.1c-0.3,1.5,0.6,2.9,2.1,3.2l35.1,7.9l0,0c1.5,0.3,2.9-0.6,3.2-2
	c0.3-1.5-0.6-2.9-2-3.2L339,310.5C339,310.5,339,310.5,339,310.5z"/>
<path class="st6" d="M294.9,280.4c-0.3,1.5,0.6,2.9,2,3.2l80.9,18.2l0,0c1.5,0.3,2.9-0.6,3.2-2c0.3-1.5-0.6-2.9-2-3.2l-80.9-18.2
	C296.7,278.1,295.2,279,294.9,280.4z"/>
<path class="st6" d="M300.5,268C300.5,268,300.5,268,300.5,268c-1.5-0.3-2.9,0.6-3.2,2c-0.3,1.5,0.6,2.9,2,3.2l80.9,18.2
	c0,0,0,0,0,0c1.5,0.3,2.9-0.6,3.2-2.1c0.3-1.5-0.6-2.9-2.1-3.2L300.5,268L300.5,268z"/>
<path class="st6" d="M345.4,269.9c-0.3,1.5,0.6,2.9,2,3.2l35.1,7.9c1.5,0.3,2.9-0.6,3.2-2c0.3-1.5-0.6-2.9-2-3.2l-35.1-7.9
	C347.2,267.5,345.7,268.4,345.4,269.9z"/>
<path class="st3" d="M304.5,237.7c-0.3,1.5,0.6,2.9,2,3.2l80.9,18.2l0,0c1.5,0.3,2.9-0.6,3.2-2c0.3-1.5-0.6-2.9-2-3.2l-80.9-18.2
	C306.3,235.4,304.8,236.3,304.5,237.7z"/>
<path class="st3" d="M306.8,227.3c-0.3,1.5,0.6,2.9,2,3.2l80.9,18.2l0,0c1.5,0.3,2.9-0.6,3.2-2c0.3-1.5-0.6-2.9-2-3.2l-80.9-18.2
	C308.6,224.9,307.2,225.9,306.8,227.3z"/>
<path class="st3" d="M355,227.2c-0.3,1.5,0.6,2.9,2,3.2l35.1,7.9l0,0c1.5,0.3,2.9-0.6,3.2-2c0.3-1.5-0.6-2.9-2-3.2l-35.1-7.9
	C356.8,224.8,355.4,225.7,355,227.2z"/>
<path class="st7" d="M436.2,340c-1.7,0-3.3,0.6-4.6,1.8l-48.4,44c-1.6,1.5-3.7,2.3-5.9,2.3l-215.2,0c-1.6,0-2.9,1.3-2.9,2.9v251
	c0,1.6,1.3,2.9,2.9,2.9h374.9c1.6,0,2.9-1.3,2.9-2.9v-299c0-1.6-1.3-2.9-2.9-2.9H436.2z"/>
<path class="st3" d="M78,290.8l104.5,243.1c2.1,0.3,4.2,0.1,6.1-0.8l235.9-101.4L319.4,187.1c-4.8-11.2-17.8-16.4-29-11.6
	L89.6,261.8C78.4,266.6,73.2,279.6,78,290.8z"/>
<path class="st5" d="M127.1,361.1l72,167.5l209.5-90.1l-98.9-230.1c-4.4-10.2-16.2-14.9-26.4-10.5l-110,47.3
	C128.6,264.6,108,316.4,127.1,361.1z"/>
<path class="st6" d="M226,492.9c-2.5,1.1-3.6,4-2.6,6.4c1.1,2.5,4,3.6,6.4,2.6L368,442.5c2.5-1.1,3.6-4,2.6-6.4
	c-1.1-2.5-4-3.6-6.4-2.6L226,492.9C226.1,492.9,226.1,492.9,226,492.9z"/>
<path class="st6" d="M218.4,475.1C218.4,475.1,218.4,475.1,218.4,475.1c-2.5,1.1-3.7,4-2.6,6.5c1.1,2.5,4,3.6,6.5,2.6l138.1-59.4
	c2.5-1.1,3.6-4,2.6-6.4c-1.1-2.5-4-3.6-6.4-2.6L218.4,475.1L218.4,475.1z"/>
<path class="st6" d="M289,423.7C289,423.7,289,423.7,289,423.7c-2.5,1.1-3.6,4-2.6,6.4c1.1,2.5,4,3.6,6.4,2.6l59.9-25.7l0,0
	c2.5-1.1,3.6-4,2.6-6.4c-1.1-2.5-4-3.6-6.4-2.6L289,423.7L289,423.7z"/>
<path class="st6" d="M194.7,420C194.7,420,194.7,420,194.7,420c-2.5,1.1-3.6,4-2.6,6.4c1.1,2.5,4,3.6,6.4,2.6l138.1-59.4
	c2.5-1.1,3.6-4,2.6-6.4s-4-3.6-6.4-2.6L194.7,420L194.7,420z"/>
<path class="st6" d="M187.1,402.2C187.1,402.2,187.1,402.2,187.1,402.2c-2.5,1.1-3.6,4-2.6,6.5c1.1,2.5,4,3.6,6.4,2.5l138.1-59.4
	c0,0,0,0,0,0c2.5-1.1,3.6-4,2.6-6.4c-1.1-2.5-4-3.6-6.4-2.6L187.1,402.2L187.1,402.2z"/>
<path class="st6" d="M257.7,350.8c-2.5,1.1-3.6,4-2.6,6.4c1.1,2.5,4,3.6,6.4,2.6l59.9-25.7c2.5-1.1,3.6-4,2.6-6.4
	c-1.1-2.5-4-3.6-6.4-2.6L257.7,350.8C257.7,350.8,257.7,350.8,257.7,350.8z"/>
<path class="st8" d="M163.4,347.1c-2.5,1.1-3.6,4-2.6,6.4c1.1,2.5,4,3.6,6.4,2.6l138.1-59.4c2.5-1.1,3.6-4,2.6-6.4
	c-1.1-2.5-4-3.6-6.4-2.6L163.4,347.1C163.4,347.1,163.4,347.1,163.4,347.1z"/>
<path class="st8" d="M155.7,329.3c-2.5,1.1-3.6,4-2.5,6.5c1.1,2.5,4,3.6,6.5,2.5L297.7,279c2.5-1.1,3.6-4,2.6-6.4
	c-1.1-2.5-4-3.6-6.4-2.6L155.7,329.3C155.7,329.3,155.7,329.3,155.7,329.3z"/>
<path class="st8" d="M226.3,277.9C226.3,277.9,226.3,277.9,226.3,277.9c-2.5,1.1-3.6,4-2.6,6.4c1.1,2.5,4,3.6,6.4,2.6l59.9-25.7
	c2.5-1.1,3.6-4,2.6-6.4c-1.1-2.5-4-3.6-6.4-2.6L226.3,277.9L226.3,277.9z"/>
<path class="st3" d="M360.8,359.9l-32,142.4c0.8,0.8,1.9,1.4,3,1.7L470,535.1l32.3-143.4c1.5-6.6-2.7-13.1-9.2-14.6l-117.6-26.5
	C368.8,349.2,362.3,353.3,360.8,359.9z"/>
<path class="st5" d="M360,407.2l-22.1,98.2L460.7,533L491,398.2c1.3-6-2.4-11.9-8.4-13.3l-64.5-14.5
	C391.9,364.6,365.9,381,360,407.2z"/>
<path class="st6" d="M361.5,498.1C361.5,498.1,361.5,498.1,361.5,498.1c-1.5-0.3-2.9,0.6-3.2,2.1c-0.3,1.5,0.6,2.9,2.1,3.2
	l80.9,18.2c0,0,0,0,0,0c1.5,0.3,2.9-0.6,3.2-2.1c0.3-1.5-0.6-2.9-2.1-3.2L361.5,498.1L361.5,498.1z"/>
<path class="st6" d="M363.9,487.7C363.9,487.7,363.9,487.7,363.9,487.7c-1.5-0.3-2.9,0.6-3.2,2.1c-0.3,1.5,0.6,2.9,2.1,3.2
	l80.9,18.2c1.5,0.3,2.9-0.6,3.2-2c0.3-1.5-0.6-2.9-2-3.2L363.9,487.7L363.9,487.7z"/>
<path class="st6" d="M412,487.5c-1.5-0.3-2.9,0.6-3.2,2.1c-0.3,1.5,0.6,2.9,2.1,3.2l35.1,7.9c1.5,0.3,2.9-0.6,3.2-2
	c0.3-1.5-0.6-2.9-2-3.2L412,487.5C412,487.5,412,487.5,412,487.5z"/>
<path class="st6" d="M371.1,455.4C371.1,455.4,371.1,455.4,371.1,455.4c-1.5-0.3-2.9,0.6-3.2,2.1c-0.3,1.5,0.6,2.9,2.1,3.2
	l80.9,18.2c1.5,0.3,2.9-0.6,3.2-2c0.3-1.5-0.6-2.9-2-3.2L371.1,455.4L371.1,455.4z"/>
<path class="st6" d="M373.5,445C373.5,445,373.5,445,373.5,445c-1.5-0.3-2.9,0.6-3.2,2c-0.3,1.5,0.6,2.9,2.1,3.2l80.9,18.2
	c0,0,0,0,0,0c1.5,0.3,2.9-0.6,3.2-2.1s-0.6-2.9-2.1-3.2L373.5,445L373.5,445z"/>
<path class="st6" d="M421.6,444.8c-1.5-0.3-2.9,0.6-3.2,2.1c-0.3,1.5,0.6,2.9,2.1,3.2l35.1,7.9c1.5,0.3,2.9-0.6,3.2-2
	c0.3-1.5-0.6-2.9-2-3.2L421.6,444.8C421.6,444.8,421.6,444.8,421.6,444.8z"/>
<path class="st3" d="M377.5,414.7c-0.3,1.5,0.6,2.9,2,3.2l80.9,18.2c1.5,0.3,2.9-0.6,3.2-2c0.3-1.5-0.6-2.9-2-3.2l-80.9-18.2
	C379.3,412.4,377.8,413.3,377.5,414.7z"/>
<path class="st3" d="M379.8,404.3c-0.3,1.5,0.6,2.9,2,3.2l80.9,18.2l0,0c1.5,0.3,2.9-0.6,3.2-2c0.3-1.5-0.6-2.9-2-3.2l-80.9-18.2
	C381.6,401.9,380.2,402.9,379.8,404.3z"/>
<path class="st3" d="M428,404.2c-0.3,1.5,0.6,2.9,2,3.2l35.1,7.9l0,0c1.5,0.3,2.9-0.6,3.2-2c0.3-1.5-0.6-2.9-2-3.2l-35.1-7.9
	C429.8,401.8,428.4,402.7,428,404.2z"/>
<path class="st7" d="M111.6,418.6c-0.8,0-1.6,0.3-2.2,1c-0.5,0.6-0.8,1.4-0.7,2.3l25.1,222.5c0.2,1.5,1.4,2.6,2.9,2.6h402.8
	c1.5,0,2.7-1.1,2.9-2.6c0,0,0.1-222.7,0.1-222.8c0,0,0,0,0,0c0-1.6-1.3-2.9-2.9-2.9L111.6,418.6z"/>
<path class="st8" d="M142.8,430.9c-0.6,0-1.2,0-1.7,0.1c-8.5,1-14.6,8.6-13.7,17.1l9.1,80.5c6.8,60.3,57.8,106,118.5,105.9h255.7
	c0,0,0.1,0,0.1,0c8.6-0.1,15.4-7.1,15.4-15.6l0.5-172.6c-0.1-8.5-7-15.3-15.5-15.4L142.8,430.9z M119.3,429.9L119.3,429.9v1V429.9z"
	/>
<path class="st6" d="M399.4,552.5h99c2.1,0,3.9,1.7,3.9,3.9s-1.7,3.9-3.9,3.9h-99C394.4,560.3,394.5,552.4,399.4,552.5z"/>
<path class="st6" d="M266,572.7h232.5c2.1,0,3.9,1.7,3.9,3.9s-1.7,3.9-3.9,3.9H266C261,580.5,261,572.6,266,572.7z"/>
</svg>
