<?xml version="1.0" encoding="utf-8"?>
<!-- Generator: Adobe Illustrator 19.0.0, SVG Export Plug-In . SVG Version: 6.00 Build 0)  -->
<svg version="1.1" id="Layer_1" xmlns="http://www.w3.org/2000/svg" xmlns:xlink="http://www.w3.org/1999/xlink" x="0px" y="0px"
	 viewBox="-262 89 754.5 544" style="enable-background:new -262 89 754.5 544;" xml:space="preserve">
<style type="text/css">
	.st0{fill:#F2F2F2;}
	.st1{fill:#E6E6E6;}
	.st2{fill:#FFFFFF;}
	.st3{fill:#2F2E41;}
	.st4{fill:#9E616A;}
	.st5{fill:#FFB6B6;}
	.st6{fill:#3F3D56;}
	.st7{fill:#CACACA;}
	.st8{fill:#6C63FF;}
</style>
<path class="st0" d="M171.9,549.1c5.5,4,10.5,8.6,14.9,13.8c15.5,18.9,22,43.7,17.6,67.8l-15.6-9.5c-15.1-1.7-28.6-10.2-36.6-23.1
	c-12.6-20.5-10.3-49.8-28.9-65c13.5,0.1,26.8,3.4,38.7,9.8l1.1,25.7C163.2,568.7,168.2,558.9,171.9,549.1z"/>
<path class="st1" d="M49.3,175.9c-10.4-10.3-24.4-16-38.3-19.6c-15.8-4.1-32.2-6.5-48.3-8.9c-16.8-2.4-33.7-4.3-50.7-5.6
	c-16.9-1.3-33.9-2.1-50.9-2.2c-15.2-0.2-30.4-0.2-45.5,1.5c-14.2,1.6-28.4,4.8-41.2,11.3c-11.4,5.7-21,14.4-27.6,25.3
	c-6.1,10.1-9.8,22.2-8.5,34.1c0.6,5.8,2.4,11.5,5.3,16.6c3.4,5.6,7.8,10.6,12.9,14.8c10.6,8.9,23.2,15.5,32.3,26.1
	c2.4,2.8,4.5,5.8,6.3,9c1.1,2.5,3,4.5,5.3,6c4.5,2.6,10.1,2.2,14.2-1c2.8-2.2,4.9-5.7,7.1-8.5l7.6-9.8c0.6-0.9,1.2-1.7,1.9-2.5
	c0.5-0.4-0.3-0.1-0.2-0.2c0.1-0.1,0.3,0,0.4-0.1c0.5-0.1,1-0.2,1.6-0.3c5.6-1,11.2-2,16.8-2.9c20.7-3.3,41.6-6.1,62.5-7.6
	c10.8-0.9,21.6-1.1,32.4-0.8c14,0.6,27.8,3.3,41.7,4.5c15,1.3,30.8,1.1,44.9-4.7c11.3-4.6,21.8-12.4,28-23.2
	c2.9-5.1,4.6-10.8,5-16.6C65,197.6,58.5,185,49.3,175.9z"/>
<path class="st2" d="M-147.3,150.5c-2.7,0-5.3,0-8,0c-25.6,0.3-52,2.3-72.1,15.5c-17.8,11.7-30.3,37.8-19.7,56.5
	c4.9,8.6,13.6,14.8,23,21.5c3.6,2.6,7.4,5.3,11,8.2c7.9,6.3,15.3,14.8,19.6,24.3l18.8-24.2l3.6-0.7c3.4-0.7,84.1-16,127.1-11
	c4,0.5,8,1,11.8,1.5c17.5,2.3,34,4.5,49.8,1.3c16.5-3.3,34.7-16.1,35.8-33.2c0.7-11.7-6.9-24.5-19.4-32.7
	c-12.6-8.2-28.4-11.7-43.5-14.4C-55,154.7-101.1,150.5-147.3,150.5z"/>
<path class="st1" d="M-1.5,187.7H-183c-2.2,0-3.9-1.8-3.9-3.9c0-2.2,1.8-3.9,3.9-3.9H-1.5c0,0,0,0,0,0c2.2,0,3.9,1.8,3.9,4
	C2.5,186,0.7,187.7-1.5,187.7z"/>
<path class="st1" d="M-1.5,212H-183c-2.2,0-4-1.8-4-3.9c0-2.2,1.8-4,3.9-4H-1.5l0,0c2.2,0,3.9,1.8,3.9,4C2.5,210.2,0.7,212-1.5,212z
	"/>
<path class="st1" d="M-161.8,236.2H-183c-2.2,0-3.9-1.8-3.9-3.9c0-2.2,1.8-3.9,3.9-3.9h21.1c2.2,0,3.9,1.8,3.9,4
	C-157.9,234.4-159.6,236.2-161.8,236.2z"/>
<path class="st3" d="M240.6,212.6c15.8-0.2,31.6-0.5,46.8-0.1v-6.9l2.8,7c1.9,0.1,8.6,0.1,10.5,0.2c9.7-11.6,6.2-48.1-7.8-58.8
	c-7.7-5.8-22.7-9.9-32.9-7.2c-9.3,2.4-17.1,8.9-20.9,17.8C235.8,172.4,239.2,204.4,240.6,212.6z"/>
<polygon class="st4" points="241.7,552.1 221.2,552.1 227.8,605.5 241.7,605.5 "/>
<polygon class="st4" points="349.4,545.2 329.7,550.4 349.5,600.4 362.9,596.9 "/>
<polygon class="st5" points="237.6,271.1 230.7,279.3 227.7,315 289.1,293.7 289.7,285.5 286.6,277.4 "/>
<circle class="st4" cx="260.2" cy="182" r="21.9"/>
<path class="st3" d="M232,178.2c3.8,2.9,7.8,2.9,12,0l1.8-7.6l3.1,7.6c13.5,3.6,26.2,2.3,38.2-0.7c0.1-5.2-1.3-10.4-4-14.9
	c-7.9-13-24.9-17.1-37.9-9.2C236.7,158.7,231.6,168.2,232,178.2z"/>
<path class="st3" d="M247.9,631.8H238l-1.8-9.3l-4.5,9.3h-26.1c-1.9,0-3.7-0.9-4.8-2.5c-1.8-2.7-1.2-6.3,1.5-8.2l20.8-14.4v-9.4
	l21.9,1.3L247.9,631.8z"/>
<path class="st3" d="M376.8,620.5l-9.5,2.5l-4-8.5l-2,10.1l-25.2,6.6c-1.9,0.5-3.8,0-5.3-1.2c-2.5-2.1-2.7-5.8-0.6-8.3l16.5-19.2
	l-2.4-9.1l21.5-4.3L376.8,620.5z"/>
<path class="st3" d="M364.4,567.9c0,2.8-2.2,5-5,5h-25c-2.6,0-4.8-2-5-4.6c-0.2-2.7,1.8-5.1,4.6-5.4l-50.4-78l-20.9-84.8
	l-17.9,171.8h0.6c2.8,0,5,2.2,5,5s-2.2,5-5,5h-25c-2.8,0-5-2.2-5-5s2.2-5,5-5h0.8l-2.5-135c-0.7-37.6,5.6-74.9,18.5-110.2v0
	l63.2-11.9v13.9c0,0,16.3,33.2,7.5,49.5l12.7,101.6l40.6,83.4C363.1,564.1,364.4,565.9,364.4,567.9z"/>
<path class="st6" d="M303.1,342.2l-76.6,19.3c-2.1,0.5-4.3-0.8-4.9-2.9h0c-0.5-2.1,0.7-4.2,2.8-4.8c-0.9-1.1-1.4-2.5-1.3-3.9
	c0.4-7.3,1-20.4-0.2-29.1c-3.4-25,3.5-70,6.9-89.9c1-5.8,6.1-9.9,11.9-9.8l0,0c0.2,0,0.4-0.2,0.4-0.4c0.4-3.3,3.2-5.8,6.6-5.8h24.9
	c0,0,0,0,0,0c3.9,0,7.1,3.2,7.1,7.1c0,0.2,0.2,0.4,0.4,0.4l8.4,0.6c2.6,0.2,4.6,2.2,4.7,4.8l1.6,34.1l0,0.1
	c0.2,1.8,5.7,62.9,6.5,72.4c1.7,0.1,3.2,1.3,3.6,3h0C306.6,339.4,305.3,341.6,303.1,342.2z"/>
<path class="st7" d="M73.9,633c-0.7,0-1.2-0.5-1.2-1.2s0.5-1.2,1.2-1.2l417.4,0c0,0,0,0,0,0c0.7,0,1.2,0.5,1.2,1.2s-0.5,1.2-1.2,1.2
	L73.9,633C73.9,633,73.9,633,73.9,633z"/>
<path class="st4" d="M314.6,396.3c4.6-2.8,6.2-8.8,3.4-13.5l-12.4-74.7l-17.2-5.5l15.5,77.2c-0.5,0.3-0.9,0.7-1.3,1.1
	c-3.8,3.8-3.8,10,0,13.8C305.7,398,310.7,398.6,314.6,396.3z"/>
<path class="st6" d="M272.2,264.4l10.5,24.2l17.5,81.4l22.6-5l-16.3-75.5c0,0-3.4-33-5.1-50s-11.1-16.3-11.1-16.3l-10.6,8
	L272.2,264.4z"/>
<path class="st4" d="M141.3,253.3c-4.2,1.6-6.8,5.9-6.2,10.4c0.7,5.4,5.6,9.2,11,8.5l73.4,18.4l11.9-13.5l-77-16.6
	c-0.1-0.6-0.3-1.1-0.5-1.7C152,253.8,146.3,251.3,141.3,253.3L141.3,253.3z"/>
<path class="st6" d="M242.6,295.7c-11.9,6.2-83.7-18.1-86.8-19.2l-0.8-0.3l14.8-13.6l56.8,8.3l1.7-33.3c0.4-7.5,5.5-14,12.7-16.1
	c3.5-1,7.2-1,10.7,0.2c9.3,3.1,14.4,13.2,11.3,22.5l-14.1,42.3c-1.1,3.2-2.9,6.2-5.4,8.6C243.2,295.3,242.9,295.6,242.6,295.7z"/>
<path class="st8" d="M133.4,223.6l-14.8-19l-3.8-0.7c-3.8-0.7-94.6-18-143-12.4c-4.4,0.5-8.9,1.1-13.3,1.7
	c-19.7,2.6-38.3,5-56.2,1.4c-18.8-3.8-39.4-18.4-40.7-37.8c-0.8-13.3,7.8-27.9,22-37.2c14.3-9.3,32.1-13.2,49.1-16.3
	C-16,93.8,35.9,89.1,88,89l0,0c3,0,6,0,9,0c28.9,0.3,58.7,2.6,81.4,17.6c20.2,13.3,34.4,43,22.4,64.3c-5.5,9.8-15.5,16.8-26,24.3
	c-4.1,2.9-8.3,5.9-12.4,9.2c-6.7,5.3-12.5,11.6-17.2,18.7c-1.3,2-3.5,3.2-5.8,3.3c-0.1,0-0.2,0-0.3,0
	C136.8,226.4,134.7,225.4,133.4,223.6z"/>
<path class="st2" d="M-80.6,127c0-2.5,2-4.4,4.4-4.4h204.3c2.5,0,4.4,2,4.4,4.4c0,2.5-2,4.4-4.4,4.4H-76.2
	C-78.6,131.4-80.6,129.4-80.6,127z"/>
<path class="st2" d="M-80.6,154.3c0-2.5,2-4.4,4.4-4.4h204.3c2.5,0,4.4,2,4.4,4.4c0,2.5-2,4.4-4.4,4.4H-76.2
	C-78.6,158.7-80.6,156.7-80.6,154.3z"/>
<path class="st2" d="M99.8,181.5c0-2.5,2-4.4,4.4-4.4h23.8c2.5,0,4.4,2,4.4,4.4s-2,4.4-4.4,4.4h-23.8C101.8,186,99.8,184,99.8,181.5
	z"/>
</svg>
