<?xml version="1.0" encoding="utf-8"?>
<!-- Generator: Adobe Illustrator 19.0.0, SVG Export Plug-In . SVG Version: 6.00 Build 0)  -->
<svg version="1.1" id="Layer_1" xmlns="http://www.w3.org/2000/svg" xmlns:xlink="http://www.w3.org/1999/xlink" x="0px" y="0px"
	 viewBox="-236 56.3 806 609.7" style="enable-background:new -236 56.3 806 609.7;" xml:space="preserve">
<style type="text/css">
	.st0{fill:#F2F2F2;}
	.st1{fill:#FFFFFF;}
	.st2{fill:#3F3D56;}
	.st3{fill:#6C63FF;}
	.st4{fill:#E6E6E6;}
	.st5{fill:#A0616A;}
	.st6{fill:#2F2E41;}
</style>
<path class="st0" d="M-104.1,474.3V79.4c0-6.8,5.5-12.3,12.3-12.3h649.5c6.7,0,12.1,5.4,12.1,12.1v395.2c0,9.1-7.4,16.5-16.5,16.5
	l-640.8,0C-96.7,490.8-104.1,483.4-104.1,474.3z"/>
<path class="st1" d="M-82.7,455.1V111.2c0-6.2,5.4-11.2,12-11.2h605.3c6.5,0,11.8,4.9,11.8,11l0,344.1c0,8.2-7.1,14.9-15.9,14.9
	l-597.2,0C-75.6,470-82.7,463.3-82.7,455.1z"/>
<path class="st2" d="M-103.8,72.8c0-9.1,7.4-16.5,16.6-16.5h640.7c9.1,0,16.5,7.4,16.6,16.5v8.4h-673.8V72.8z"/>
<circle class="st1" cx="539.9" cy="68.8" r="4.3"/>
<circle class="st1" cx="523.7" cy="68.8" r="4.3"/>
<circle class="st1" cx="507.4" cy="68.8" r="4.3"/>
<path class="st3" d="M361.7,170v71.8c0,8.8,7.2,16,16,16h105.6c0,0,0,0,0,0c8.8,0,16-7.2,16-16v-71.8c0,0,0,0,0,0
	c0-8.8-7.2-16-16-16H377.7C368.8,154.1,361.7,161.2,361.7,170z"/>
<path class="st3" d="M287.2,154H181.7c-8.8,0-16,7.2-16,16v71.8c0,8.8,7.2,16,16,16h105.5c8.8,0,16-7.2,16-16V170
	C303.2,161.2,296,154,287.2,154z"/>
<path class="st4" d="M91.2,154H-14.3c-8.8,0-16,7.2-16,16v71.8c0,8.8,7.2,16,16,16H91.2c8.8,0,16-7.2,16-16V170
	C107.2,161.2,100,154,91.2,154z"/>
<path class="st4" d="M483.2,313H377.7c-8.8,0-16,7.2-16,16v71.8c0,8.8,7.2,16,16,16h105.5c8.8,0,16-7.2,16-16V329
	C499.2,320.2,492,313,483.2,313z"/>
<path class="st4" d="M287.2,313H181.7c-8.8,0-16,7.2-16,16v71.8c0,8.8,7.2,16,16,16h105.5c8.8,0,16-7.2,16-16V329
	C303.2,320.2,296,313,287.2,313z"/>
<path class="st3" d="M91.2,313H-14.3c-8.8,0-16,7.2-16,16v71.8c0,8.8,7.2,16,16,16H91.2c8.8,0,16-7.2,16-16V329
	C107.2,320.2,100,313,91.2,313z"/>
<circle class="st1" cx="430.4" cy="206" r="22"/>
<path class="st1" d="M426.2,242h8.6c8.8,0,17.1,3.5,23.3,9.7c2.4,2.4,4.4,5.2,6,8.2h-67.2C402.5,248.9,413.8,242,426.2,242z"/>
<circle class="st1" cx="234.4" cy="206" r="22"/>
<path class="st1" d="M230.2,242h8.6c8.8,0,17.1,3.5,23.3,9.7c2.4,2.4,4.4,5.2,6,8.2h-67.2C206.5,248.9,217.8,242,230.2,242z"/>
<circle class="st1" cx="38.4" cy="206" r="22"/>
<path class="st1" d="M34.2,242h8.6c8.8,0,17.1,3.5,23.3,9.7c2.4,2.4,4.4,5.2,6,8.2H4.8C10.5,248.9,21.8,242,34.2,242z"/>
<circle class="st1" cx="430.4" cy="365" r="22"/>
<path class="st1" d="M426.2,401h8.6c8.8,0,17.1,3.5,23.3,9.7c2.4,2.4,4.4,5.2,6,8.2h-67.2C402.5,407.9,413.8,401,426.2,401z"/>
<circle class="st1" cx="234.4" cy="365" r="22"/>
<path class="st1" d="M230.2,401h8.6c8.8,0,17.1,3.5,23.3,9.7c2.4,2.4,4.4,5.2,6,8.2h-67.2C206.5,407.9,217.8,401,230.2,401z"/>
<circle class="st1" cx="38.4" cy="365" r="22"/>
<path class="st1" d="M34.2,401h8.6c8.8,0,17.1,3.5,23.3,9.7c2.4,2.4,4.4,5.2,6,8.2H4.8C10.5,407.9,21.8,401,34.2,401z"/>
<path class="st2" d="M-236,665c0-0.6,0.4-1,1-1H26c0.6,0,1,0.4,1,1s-0.4,1-1,1h-261C-235.6,666-236,665.6-236,665z"/>
<polygon class="st5" points="-100.7,606.5 -82.6,606.5 -88.4,653.8 -100.7,653.8 "/>
<path class="st6" d="M-64.8,665.2L-64.8,665.2L-64.8,665.2h-38.5l0,0v-14.9l0,0h23.6C-71.5,650.3-64.8,657-64.8,665.2z"/>
<polygon class="st5" points="-146.7,606.5 -128.6,606.5 -134.4,653.8 -146.7,653.8 "/>
<path class="st6" d="M-110.8,665.2L-110.8,665.2L-110.8,665.2h-38.5l0,0v-14.9l0,0h23.6C-117.5,650.3-110.8,657-110.8,665.2z"/>
<path class="st5" d="M-145.2,513c-4.2,2.7-9.7,2.2-13.3-1.2c-4.3-4.1-4.5-10.9-0.4-15.3l0.6-112.2l23.3-2.3l-8.1,114.6
	c0.4,0.5,0.8,1,1.2,1.5C-138.8,503.1-140.2,509.8-145.2,513L-145.2,513z"/>
<path class="st6" d="M-100.3,630c-2.3,0-4.2-1.7-4.5-4l-7.1-59.6c-0.2-1.6-1.4-2.8-2.9-3c-1.9-0.3-3.7,1-4,2.9l-9,57.1
	c-0.3,2.2-2.2,3.8-4.4,3.8h-14.6c0,0,0,0,0,0c-2.5,0-4.5-2-4.5-4.5c-0.3-50.8,0.1-99.6,6.9-126.5c0-2.2,1.6-4.1,3.9-4.4l54-7.8
	c0.2,0,0.5,0,0.7,0c2.5,0,4.5,2,4.5,4.5c7.5,22.7,2.6,81.6-0.9,136.6c0,2.4-1.9,4.3-4.3,4.5l-13.5,0.6
	C-100.2,630-100.3,630-100.3,630z"/>
<path class="st2" d="M-128.3,500.9c-5.2,0-10.3-0.9-15.2-2.7c-1.7-0.6-2.8-2.2-2.9-4c-0.5-10.3-3.2-63.5-11.1-96
	c-3.2-13,1.8-26.7,12.6-34.6c0.4-0.3,0.9-0.6,1.3-0.9c9.3-6.2,21.2-7.1,31.4-2.5c10.5,4.7,17.8,14.5,19.4,26l12.9,96.1
	c0.2,1.2-0.2,2.4-0.9,3.4c-0.7,1-1.8,1.6-3.1,1.7c-4.5,0.4-13.8,2.2-25.7,8.8C-115.4,499.3-121.8,500.9-128.3,500.9z"/>
<path class="st2" d="M-144.2,421.3l-21.3-5.8c-2.4-0.7-3.8-3.1-3.2-5.5l7.5-27.6c1.5-5.6,6.8-9.5,12.6-9.1
	c6.8,0.4,12.1,6.2,11.7,13.1l-1.7,30.9c-0.1,1.4-0.8,2.6-1.9,3.4C-141.4,421.4-142.8,421.6-144.2,421.3z"/>
<circle class="st5" cx="-120.5" cy="322.6" r="24.6"/>
<path class="st5" d="M-31.4,370.9c0.1-0.4,0.2-0.8,0.4-1.2c2-5.4,8-8.2,13.5-6.2s8.2,8,6.2,13.5c-2,5.4-8,8.2-13.5,6.2l-49,38.7
	l-22.3-15.9l11.1-14.6l10.4,6l43-24.8C-31.7,372-31.6,371.4-31.4,370.9L-31.4,370.9z"/>
<path class="st2" d="M-78.2,398.5l-18.5,12c-2.1,1.3-4.9,0.8-6.2-1.3l-15.6-24c-3.2-4.9-2.5-11.4,1.6-15.5c4.8-4.8,12.7-4.8,17.5,0
	l21.9,21.9c1,1,1.4,2.3,1.3,3.7C-76.3,396.5-77.1,397.8-78.2,398.5z"/>
<path class="st6" d="M-148.1,327c-2.4-8.2-2-17.5,2.9-24.5c4-5.7,10.5-9.2,17-11.8c5.7-2.2,11.8-3.9,18-3.5s12.4,3.1,15.9,8.1
	c2.9,4.1,3.2,10.9-1.2,13.4c-4,2.2-10.3,0.2-12.5,4.2c-1.6,3,0.9,7.3-1.3,10c-3.4,4.4-12-2.7-15.7,2.2c-0.5,0.6-0.7,1.4-0.8,2.1
	c-0.4,3.1,1.3,5.8,1.6,8.8c0.1,0.5,0.1,1,0,1.6c-0.6,6.7-9.1,9.3-13.7,4.4C-141.6,338.1-146.6,332-148.1,327z"/>
</svg>
