<?xml version="1.0" encoding="utf-8"?>
<!-- Generator: Adobe Illustrator 19.0.0, SVG Export Plug-In . SVG Version: 6.00 Build 0)  -->
<svg version="1.1" id="Layer_1" xmlns="http://www.w3.org/2000/svg" xmlns:xlink="http://www.w3.org/1999/xlink" x="0px" y="0px"
	 viewBox="-207 18.9 864.7 685.1" style="enable-background:new -207 18.9 864.7 685.1;" xml:space="preserve">
<style type="text/css">
	.st0{fill:#F2F2F2;}
	.st1{fill:#CCCCCC;}
	.st2{fill:#FFB6B6;}
	.st3{fill:#2F2E41;}
	.st4{fill:#6C63FF;}
	.st5{fill:#E6E6E6;}
	.st6{opacity:0.17;enable-background:new    ;}
	.st7{fill:#CACACA;}
	.st8{fill:#3F3D56;}
	.st9{fill:#E6E7E8;}
	.st10{opacity:0.2;enable-background:new    ;}
</style>
<path class="st0" d="M556.4,534.3c-1,4-1.5,8.1-1.4,12.2l0,0c1.1,1.3,2.2,2.7,3.2,4c0,0.1,0.1,0.1,0.1,0.2c2.1,2.6,4.3,5.2,6.4,7.9
	c-2.6,0.5-5.3,0.6-7.9,0.5c0.1,0.3,0.2,0.6,0.3,1h28.7c3.5-7.5,6.2-15.4,8-23.4h0c13.8-0.1,27-5.9,36.4-16c3.8-4.1,6.8-8.9,9-14.1
	c-0.1,0-0.1,0-0.2,0l-0.1,0c-1.4-0.2-2.6-1-3.3-2.1c-1.5-2.3-0.9-5.3,1.4-6.8c0.7-0.4,1.3-0.8,2-1.2c1.2-0.7,2.4-1.3,3.7-1.8
	c0-0.1,0-0.2,0-0.2c0.2-1.3-0.1-2.7-0.8-3.8c-1.7-2.6-5.2-3.4-7.8-1.7c-8.5,5.2-19.6,7.6-27.5,14c-5.3,4.4-8.9,10.5-10.2,17.3l0,0.2
	c0.5-6.1,0.5-12.2,0.1-18.3c-0.8-10.3-3-20.5-6.4-30.3c0.4-0.2,0.8-0.4,1.2-0.6c12.4-6.6,21.4-18,25-31.5c0.6-2.4,1-4.8,1.3-7.3
	l-0.1,0c-1.4-0.2-2.6-1-3.3-2.1c-1.5-2.3-0.9-5.3,1.4-6.8c0.7-0.4,1.3-0.8,2-1.2c0-0.1,0-0.2,0-0.3c-1-8.8-12.3-11.9-17.8-4.9
	c-4.6,5.8-9.8,11.5-12.6,18.2c-2.7,7.2-3.7,15-2.9,22.6c-3.4-6.8-7.5-13.3-12.2-19.4c-0.3-0.3-0.5-0.6-0.8-1
	c2.6-3.9,4.6-8.2,5.7-12.8c1.2-5.4,0.5-11.4-2.9-15.7c-3.4-4.3-10-6.2-14.7-3.4c-1.4,0.8-2.5,1.9-3.4,3.3c0.5,0.6,0.9,1.2,1.4,1.7
	c0,0.1,0.1,0.1,0.1,0.2c0.4,0.5,0.8,1,1.2,1.5c0.3,0.3,0.5,0.7,0.8,1c0.6,0.7,0.8,1.5,0.8,2.4c-0.1,2-1.8,3.5-3.7,3.4l-0.1,0
	c-0.2,0-0.4,0-0.6,0c-0.6,0-1.3-0.1-1.9-0.2c0.4,2.2,1.1,4.4,2.1,6.5c2.8,5.7,7.3,10.3,12.9,13.4c11.5,14.4,19.4,31.3,23.1,49.3
	c0.7,3.3,1.2,6.7,1.6,10c0.5,4.1,0.7,8.3,0.7,12.4c0,16.5-3.6,32.8-10.5,47.8c0.7-3.2,0.9-6.6,0.5-9.9c-0.9-7.5-4.6-14.5-7.6-21.6
	c-1-2.4-2.8-4.2-5.2-5.2c-4.9-2.1-10.6,0.2-12.7,5.2c0,0.1-0.1,0.2-0.1,0.2c0.1,0.4,0.2,0.6,0.2,1c0.8,0.7,1.2,1.8,1.2,2.8
	C560,532.8,558.4,534.4,556.4,534.3L556.4,534.3z"/>
<path class="st1" d="M218,560.3c0-0.7,0.5-1.2,1.2-1.2h437.3c0.7,0,1.2,0.5,1.2,1.2s-0.5,1.2-1.2,1.2H219.2c0,0,0,0,0,0
	C218.5,561.5,218,560.9,218,560.3C218,560.3,218,560.3,218,560.3z"/>
<path class="st2" d="M428.7,407.4c-5.2,1.2-9,5.9-9,11.3c-0.1,6.4,5.1,11.7,11.6,11.7l35.1,12.8l1.6-16.5l-25-8.7
	c0-0.7-0.1-1.4-0.3-2C441.2,409.8,434.9,405.9,428.7,407.4L428.7,407.4z"/>
<path class="st3" d="M464.7,451.1l-20.3-14.8l8.2-19.6l14.6,8l14.3,0.6l20.7,3.5c1.8-5.2,15.7-44.8,30.4-40.9
	c3.5,0.8,6.5,3.1,8.2,6.3c3.9,7.5,0.1,18.4-0.1,18.8l-7,26.3c0,1.5,0.3,16.6-6.1,23.3c-1.8,2-4.4,3.1-7,3.1
	c-23.8,0.2-41.3-3.4-51.3-10.3C467.7,454.1,466.1,452.7,464.7,451.1z"/>
<polygon class="st2" points="426.6,614.2 404.1,615.2 414.1,673.8 429.4,673.1 "/>
<path class="st3" d="M437.6,701.8l-10.8,0.5l-2.4-10.1l-4.5,10.5l-28.8,1.3c-2.1,0.1-4.2-0.9-5.5-2.5c-2.2-2.8-1.6-6.9,1.2-9.1
	l22.2-16.9l-0.5-10.3l24.2,0.3L437.6,701.8z"/>
<polygon class="st2" points="343,521.4 316.6,504.8 264.3,533.1 269.9,547.3 "/>
<path class="st3" d="M245.3,564.2l-4-10.1l8.8-5.5l-11.4-0.9l-10.5-26.8c-0.8-2-0.5-4.2,0.7-6c2-3,6-3.7,9-1.7l23.2,15.6l9.7-3.8
	l7.5,23L245.3,564.2z"/>
<path class="st3" d="M517,514.4c0,0-69.7-26.5-95.7-37.5s-41-7-41-7l-95,42c0,0-4.2-9.4-7.3,4.5c-0.3,1.5,10,25,10,25
	c15-4,104.3-29.4,104.3-29.4l84,25.9c0,0,27.7,13.5,57.7,10.5c30-3,36.3-43.5,36.3-43.5L517,514.4z"/>
<path class="st3" d="M500.6,504.5c0,0-34.9,5.7-63,3c-2.4-0.2-4.6-0.4-6.8-0.5c-1,0-2.1,0-3.1,0c-17.5,1.1-30.7,16.1-29.6,33.5
	l3.9,101.4c0,0,0.1,1,2.1,1c9.4-0.1,18.7-0.7,28-2c0-29,2-87.7,2-87.7l45.7,4.8c0,0,38.3,7.2,66.1,0.2c29.2-7.4,24.2-56,24.2-56
	L500.6,504.5z"/>
<path class="st3" d="M506.7,475.6l-2.6,39.6c0,0-11,0-19-5.7c-8-5.7,3.8-77.5,3.8-77.5L506.7,475.6z"/>
<path class="st3" d="M491.3,429l-7.6-14.5c-9.7-18.5-5.9-41.2,9.2-55.6l15.9-15.1L491.3,429z"/>
<path class="st4" d="M548.8,499.7c-4.8,22-51.8,7.7-51.8,7.7l-6.1-63.6l-8.1-44c-0.6-3.2-0.7-6.5-0.4-9.7l0,0
	c0.7-7.1,3.6-13.8,8.4-19.2l21.5-24.5C512.3,346.4,553.7,477.7,548.8,499.7z"/>
<path class="st3" d="M500.1,486.6l-6.9-15.8l-5.8-41.2c-0.3-2.4,6.2-41.6,15.7-83.7l11.5-16.1l6.6-6.1l18.9,12.4
	c6.8,3.6,21.7,50.6,12.5,83.9c-3.2,11.4,2.4,25.7,3.2,36.2l13.1,32.1l3.1,18.6l-0.5,0.2c-0.5,0.2-8,1.2-38.9,6.4
	C506.9,517.7,520.9,496.7,500.1,486.6z"/>
<path class="st5" d="M478,485.6c-0.1,0.3-0.2,0.6-0.4,0.8l-0.3,2.5l-4,19.3l-0.7,1c-0.5,0.6-1.3,0.9-2,0.7l-72.4-16.7
	c-0.3-0.1-0.5-0.2-0.7-0.3c-0.9-0.7-1.1-2-0.4-2.9c0-0.1,0.1-0.1,0.1-0.1c0.1-0.2,0.3-0.3,0.4-0.4l18-21.6c0.4-0.3,1-0.4,1.5-0.3
	l0,0l3.5,0.8l3,0.7l4.3,1l48.5,13C477.6,483.4,478.3,484.5,478,485.6z"/>
<path class="st6" d="M397.2,489.8c0,0-0.1,0.1-0.1,0.1c-0.2,0.2-0.3,0.5-0.3,0.7c-0.3,1.1,0.4,2.2,1.5,2.5l72.4,16.7
	c0.8,0.2,1.6-0.1,2-0.7l0.7-1L397.2,489.8z"/>
<path class="st5" d="M416.8,468.8l-14,21.7l-0.3,0.3l-0.7,0.7c-0.4,0.3-0.9,0.5-1.4,0.5l-1.3,0c-0.6,0-1.2-0.2-1.6-0.7
	c-0.4-0.4-0.6-1-0.6-1.6l1.7-17.4l0,0l1.1-11.2l0.9-9.4l0,0l1.8-97.6l0,0c0.1-1.2,1.1-2,2.3-1.9l2,0.2c0.6,0.1,1.1,0.3,1.4,0.8
	l1,1.2l9.3,19.3c0.4,0.4,0.5,1,0.5,1.5l-1.3,92.3C417.5,468,417.2,468.5,416.8,468.8z"/>
<path class="st6" d="M408.1,353.2c-0.4-0.4-0.9-0.7-1.4-0.8l-2-0.2c-1.2-0.1-2.2,0.7-2.3,1.9l-5.5,135.6c0,0.1,0,0.2,0,0.2
	c0,1.2,1,2.1,2.2,2.1l1.3,0c0.5,0,1-0.2,1.4-0.5l0.7-0.7l0.3-0.3l6.3-136.1L408.1,353.2z"/>
<polygon class="st4" points="406.8,456.7 416,443.4 417,380.8 408.6,359.9 "/>
<path class="st3" d="M468.7,483.9l-3.7,15.6l3.5,1l3.7-15.6c0.3-1-0.3-2-1.3-2.2C470,482.3,469,482.9,468.7,483.9z"/>
<path class="st3" d="M461.7,481.9l-0.8,2.8l3.5,1l0.8-2.8c0.3-1-0.3-2-1.3-2.2C463,480.3,462,480.9,461.7,481.9z"/>
<path class="st3" d="M454.7,479.9l-0.8,2.8l3.5,1l0.8-2.8c0.3-1-0.3-2-1.3-2.2C456,478.3,455,478.9,454.7,479.9z"/>
<path class="st3" d="M447.7,477.9l-0.8,2.8l3.5,1l0.8-2.8c0.3-1-0.3-2-1.3-2.2C449,476.3,448,476.9,447.7,477.9z"/>
<path class="st3" d="M440.7,475.9l-0.8,2.8l3.5,1l0.8-2.8c0.3-1-0.3-2-1.3-2.2C442,474.4,441,474.9,440.7,475.9z"/>
<path class="st3" d="M433.7,473.9l-0.8,2.8l3.5,1l0.8-2.8c0.3-1-0.3-2-1.3-2.2C435,472.4,434,472.9,433.7,473.9z"/>
<path class="st3" d="M426.7,471.9l-0.8,2.8l3.5,1l0.8-2.8c0.3-1-0.3-2-1.3-2.2C428,470.4,427,470.9,426.7,471.9z"/>
<path class="st3" d="M419.7,469.9l-0.8,2.8l3.5,1l0.8-2.8c0.3-1-0.3-2-1.3-2.2C421,468.4,420,468.9,419.7,469.9z"/>
<path class="st3" d="M460.2,488.2l-0.8,2.8l3.5,1l0.8-2.8c0.3-1-0.3-2-1.3-2.2C461.5,486.7,460.5,487.3,460.2,488.2z"/>
<path class="st3" d="M453.2,486.3l-0.8,2.8l3.5,1l0.8-2.8c0.3-1-0.3-2-1.3-2.2C454.5,484.7,453.5,485.3,453.2,486.3z"/>
<path class="st3" d="M446.2,484.3l-0.8,2.8l3.5,1l0.8-2.8c0.3-1-0.3-2-1.3-2.2C447.5,482.7,446.5,483.3,446.2,484.3z"/>
<path class="st3" d="M439.2,482.3l-0.8,2.8l3.5,1l0.8-2.8c0.3-1-0.3-2-1.3-2.2C440.5,480.7,439.5,481.3,439.2,482.3z"/>
<path class="st3" d="M432.2,480.3l-0.8,2.8l3.5,1l0.8-2.8c0.3-1-0.3-2-1.3-2.2C433.5,478.7,432.5,479.3,432.2,480.3z"/>
<path class="st3" d="M425.2,478.3l-0.8,2.8l3.5,1l0.8-2.8c0.3-1-0.3-2-1.3-2.2C426.5,476.7,425.5,477.3,425.2,478.3z"/>
<path class="st3" d="M418.2,476.3l-0.8,2.8l3.5,1l0.8-2.8c0.3-1-0.3-2-1.3-2.2C419.5,474.8,418.5,475.3,418.2,476.3z"/>
<path class="st3" d="M458.8,494.6l-0.8,2.8l3.5,1l0.8-2.8c0.3-1-0.3-2-1.3-2.2C460,493.1,459,493.7,458.8,494.6z"/>
<path class="st3" d="M451.8,492.6l-0.8,2.8l3.5,1l0.8-2.8c0.3-1-0.3-2-1.3-2.2C453,491.1,452,491.7,451.8,492.6z"/>
<path class="st3" d="M444.8,490.6l-0.8,2.8l3.5,1l0.8-2.8c0.3-1-0.3-2-1.3-2.2C446,489.1,445,489.7,444.8,490.6z"/>
<path class="st3" d="M437.8,488.6l-0.8,2.8l3.5,1l0.8-2.8c0.3-1-0.3-2-1.3-2.2C439,487.1,438,487.7,437.8,488.6z"/>
<path class="st3" d="M430.8,486.7l-0.8,2.8l3.5,1l0.8-2.8c0.3-1-0.3-2-1.3-2.2C432,485.1,431,485.7,430.8,486.7z"/>
<path class="st3" d="M423.8,484.7l-0.8,2.8l3.5,1l0.8-2.8c0.3-1-0.3-2-1.3-2.2C425,483.1,424,483.7,423.8,484.7z"/>
<path class="st3" d="M416.7,482.7l-0.8,2.8l3.5,1l0.8-2.8c0.3-1-0.3-2-1.3-2.2C418,481.1,417,481.7,416.7,482.7z"/>
<path class="st2" d="M439.6,469.3c-3,4.5-2.6,10.4,1.1,14.4c4.3,4.7,11.7,5.1,16.5,0.7l34.4-14.5l-10.1-13.2l-24.2,10.6
	c-0.5-0.5-1-0.9-1.6-1.3C450.3,462.6,443.1,464,439.6,469.3L439.6,469.3z"/>
<path class="st3" d="M495.7,476.9l-25,2.9l-7.3-20l16.2-4l10.9-9.3L508,435c-2.3-5-19-43.5-5.5-50.7c3.1-1.8,6.9-2.2,10.3-1
	c8,2.9,12.5,13.4,12.7,13.8l12.8,24.1c1,1,11.5,12,11.4,21.2c0,2.7-1.1,5.2-3.1,7C529.3,465.7,514,475,502,476.7
	C499.9,477,497.8,477.1,495.7,476.9z"/>
<ellipse transform="matrix(0.119 0.9929 -0.9929 0.119 736.8533 -248.1489)" class="st2" cx="508.3" cy="291.1" rx="30.8" ry="30.1"/>
<path class="st3" d="M620.2,270.2c-0.8,5-1.8,10-4,14.5c-2.2,4.5-5.8,8.4-10.5,9.8c-5.8,1.8-12.1-0.6-17.2-4
	c-5.1-3.4-9.6-7.9-14.9-11c-5.3-3.1-21.8-5.3-27.3-2.7c-1.3,0.6-1.4,2.1-0.9,4c2.7,9.7,1.2,20-4,28.6c-0.1,0.2-0.2,0.3-0.3,0.5
	c-4.4,8.9-14.3,14.5-24,13.6c-4-0.4-8.6-2.8-8.8-7c-0.1-2.8,1.8-5.1,3.4-7.3c1.6-2.2,3-5.2,1.8-7.6c-1.8-3.5-6.7-2.7-10.4-3.7
	c-4.6-1.2-7.8-6.4-7-11.3l-2.6-1.9c-6.3,4.4-15.7,3.1-20.7-2.9s-4.9-15.9,0.2-21.8c5.4-5.8,14.3-6.7,20.7-2
	c5.3-9.8,17.1-15.3,27.7-12.9c10.6,2.4,19.4,12.4,20.6,23.6c-0.3-5.5-0.6-11.1,0.8-16.5c1.4-5.3,4.8-10.3,9.9-12
	c7.3-2.5,15.1,2.7,19.9,9c4.9,6.2,8.2,13.8,14,19.1C595.8,276.7,610.4,277.5,620.2,270.2z"/>
<path class="st7" d="M-207,51.6c0-1,0.8-1.8,1.8-1.8h454.3c1,0,1.7,0.8,1.8,1.8c0,1-0.8,1.8-1.8,1.8h-454.3
	C-206.2,53.4-207,52.6-207,51.6z"/>
<ellipse class="st8" cx="218.1" cy="29.7" rx="10.6" ry="10.8"/>
<ellipse class="st8" cx="181.6" cy="29.7" rx="10.6" ry="10.8"/>
<ellipse class="st8" cx="145" cy="29.7" rx="10.6" ry="10.8"/>
<path class="st8" d="M-185.1,23.5c0,1.1,0.8,2,1.9,2h26c1.1,0,1.9-0.9,1.9-1.9c0-1.1-0.8-2-1.9-2h-26
	C-184.3,21.6-185.1,22.5-185.1,23.5z"/>
<path class="st8" d="M-185.1,30.9c0,1.1,0.8,2,1.9,2h26c1.1,0,1.9-0.9,1.9-1.9c0-1.1-0.8-2-1.9-2h-26
	C-184.3,29-185.1,29.9-185.1,30.9z"/>
<path class="st8" d="M-185.1,38.3c0,1.1,0.8,2,1.9,2h26c1.1,0,1.9-0.9,1.9-1.9c0-1.1-0.8-2-1.9-2h-26
	C-184.3,36.4-185.1,37.2-185.1,38.3z"/>
<path class="st3" d="M591.2,468.6L591.2,468.6L591.2,468.6L591.2,468.6z"/>
<circle class="st9" cx="-32.9" cy="110.7" r="13.1"/>
<path class="st9" d="M-143.2,139.7c-2.2,0-3.9-1.8-3.9-3.9s1.8-3.9,3.9-3.9h119.5c0,0,0,0,0,0c2.2,0,3.9,1.8,3.9,3.9
	s-1.8,3.9-3.9,3.9H-143.2C-143.2,139.7-143.2,139.7-143.2,139.7z"/>
<path class="st9" d="M-57.2,151.2c0-2.2,1.7-3.9,3.9-3.9h29.7c2.2,0,3.9,1.7,3.9,3.9c0,2.2-1.7,3.9-3.9,3.9h-29.7
	C-55.5,155.1-57.2,153.4-57.2,151.2z"/>
<circle class="st9" cx="-32.9" cy="315" r="13.1"/>
<path class="st9" d="M-143.2,344c-2.2,0-3.9-1.7-3.9-3.9c0-2.2,1.7-3.9,3.9-3.9h119.5l0,0c2.2,0,3.9,1.7,3.9,3.9
	c0,2.2-1.7,3.9-3.9,3.9H-143.2L-143.2,344z"/>
<path class="st9" d="M-57.2,355.5c0-2.2,1.7-3.9,3.9-3.9h29.7c0,0,0,0,0,0c2.2,0,3.9,1.8,3.9,3.9c0,2.2-1.8,3.9-3.9,3.9h-29.7
	C-55.5,359.4-57.2,357.7-57.2,355.5z"/>
<circle class="st9" cx="177.8" cy="284" r="13.1"/>
<path class="st9" d="M67.5,313c-2.2,0-3.9-1.7-3.9-3.9c0-2.2,1.7-3.9,3.9-3.9H187c2.2,0,3.9,1.7,3.9,3.9c0,2.2-1.7,3.9-3.9,3.9H67.5
	L67.5,313z"/>
<path class="st9" d="M157.3,328.4C157.3,328.4,157.3,328.4,157.3,328.4c-2.2,0-3.9-1.8-3.9-3.9c0-2.2,1.8-3.9,3.9-3.9H187
	c0,0,0,0,0,0c2.2,0,3.9,1.8,3.9,3.9c0,2.2-1.8,3.9-3.9,3.9H157.3L157.3,328.4z"/>
<circle class="st9" cx="-32.9" cy="205.2" r="13.1"/>
<path class="st9" d="M-143.2,234.2c-2.2,0-3.9-1.7-3.9-3.9c0-2.2,1.7-3.9,3.9-3.9h119.5l0,0c2.2,0,3.9,1.7,3.9,3.9
	c0,2.2-1.7,3.9-3.9,3.9H-143.2L-143.2,234.2z"/>
<path class="st9" d="M-99.4,245.7c0-2.2,1.7-3.9,3.9-3.9h71.8c0,0,0,0,0,0c2.2,0,3.9,1.8,3.9,3.9c0,2.2-1.8,3.9-3.9,3.9h-71.8
	C-97.6,249.6-99.4,247.8-99.4,245.7z"/>
<path class="st9" d="M-79.4,261.1c0-2.2,1.7-3.9,3.9-3.9h51.8c0,0,0,0,0,0c2.2,0,3.9,1.8,3.9,3.9c0,2.2-1.8,3.9-3.9,3.9h-51.8
	C-77.6,265-79.4,263.2-79.4,261.1z"/>
<path class="st4" d="M90.1,116.5h38c10.6,0,20.9,3.5,29.2,10.1l0.1,0.1c0.6,0.5,1.3,1,1.9,1.6c10.6,9,19,20.3,24.4,33.1
	c0.3,0.6,0.5,1.3,0.8,1.9c4.1,10.4,6.3,21.5,6.2,32.7c0,1.7,0,3.4-0.1,5c0,0.6-0.1,1.3-0.1,1.9c-0.8,10.4-3.4,20.6-7.8,30.1
	c-0.3,0.6-0.6,1.3-0.9,1.9c-4.8,9.8-11.4,18.7-19.4,26.1H90.1c-2,0-3.6-1.6-3.6-3.6V120.1C86.5,118.1,88.1,116.5,90.1,116.5z"/>
<path class="st10" d="M118.6,163.3v37.8H86.3v1.9h2.2c0,0,0,0,0,0c16.6,0,30.1,13.5,30.1,30.1H86.3v1.9h32.3v25.3h1.9v-25.3h37v25.3
	h1.9v-25.3h22.5c0.3-0.6,0.6-1.3,0.9-1.9h-23.4V203h31.2c0.1-0.6,0.1-1.3,0.1-1.9h-31.3v-37.8h25.2c-0.2-0.6-0.5-1.3-0.8-1.9h-24.4
	v-33.1c-0.6-0.5-1.3-1.1-1.9-1.6v34.7h-37v-44.9h-1.9v44.9H86.3v1.9H118.6z M120.5,203h37v30.1h-37V203z M120.5,163.3L120.5,163.3
	c20.4,0,37,16.6,37,37v0.8h-37V163.3z"/>
<path class="st3" d="M89.9,233.6c-1,4.2-1.5,8.4-1.5,12.7l0,0c1.1,1.4,2.3,2.8,3.4,4.2c0,0.1,0.1,0.1,0.1,0.2
	c2.2,2.7,4.5,5.5,6.7,8.2c-2.7,0.5-5.5,0.7-8.3,0.5c0.1,0.3,0.2,0.7,0.3,1h30c3.6-7.9,6.5-16.1,8.4-24.5h0
	c19.6,7.7,51.9-16.5,47.5-31.4c-0.1,0-0.1,0-0.2,0l-0.1,0c-1.4-0.2-2.7-1-3.5-2.2c-1.6-2.4-0.9-5.5,1.4-7.1c0.7-0.5,1.4-0.9,2.1-1.3
	c1.2-0.7,2.5-1.3,3.9-1.9c0-0.1,0-0.2,0-0.2c0.7-5-4.1-4.7-9-5.7c-8.5-1.7-37.8,18.9-39.5,32.8l0,0.2c0.5-6.4,0.6-12.8,0.1-19.2
	c-0.9-10.8-3.1-21.5-6.7-31.7c7.7,8,38.3-27.5,28.7-41.2l-0.1,0c-1.4-0.2-2.7-1-3.5-2.2c-1.6-2.4-0.9-5.5,1.4-7.1
	c0.7-0.5,1.4-0.9,2.1-1.3c0-0.1,0-0.2,0-0.3c-1-9.2-12.9-12.4-18.6-5.1c-4.8,6.1-17.2,34.7-16.2,42.7c-3.6-7.2-7.9-13.9-12.8-20.3
	c-0.3-0.3-0.5-0.7-0.8-1c2.7-4.1,4.8-8.6,6-13.4c1.2-5.6,0.6-11.9-3-16.4c-3.6-4.5-10.4-6.5-15.4-3.6c-1.4,0.9-2.6,2-3.6,3.4
	c0.5,0.6,1,1.2,1.5,1.8c0,0.1,0.1,0.1,0.1,0.2c0.4,0.5,0.9,1.1,1.3,1.6c0.3,0.3,0.6,0.7,0.9,1c0.6,0.7,0.9,1.6,0.8,2.5
	c-0.1,2.1-1.8,3.7-3.9,3.6l-0.1,0c-0.2,0-0.4,0-0.6,0c-0.7,0-1.3-0.1-2-0.2c0.4,2.3,2.1,4.4,2.2,6.8c0.6,13.3,6.6,14.4,13.5,14
	c12,15.1,20.3,32.7,24.2,51.6c0.7,3.5,1.3,7,1.7,10.5c0.5,4.3,0.7,8.6,0.7,13c0,17.3-3.8,34.3-11,50c0.8-3.4,0.9-6.9,0.5-10.3
	c-1-7.8-23.2-30.9-26.6-22.6c0,0.1-0.1,0.2-0.1,0.2c0.1,0.4,0.2,0.7,0.3,1c0.8,0.8,1.3,1.8,1.2,2.9C93.8,232.1,92,233.7,89.9,233.6
	L89.9,233.6z M124.3,166.1L124.3,166.1L124.3,166.1L124.3,166.1z M130.9,226c0.1-0.7,0.2-1.5,0.3-2.2c0,0.1,0,0.2,0,0.4
	c0,0.4,0,0.8,0,1.3L130.9,226L130.9,226z"/>
</svg>
