<?xml version="1.0" encoding="utf-8"?>
<!-- Generator: Adobe Illustrator 19.0.0, SVG Export Plug-In . SVG Version: 6.00 Build 0)  -->
<svg version="1.1" id="Layer_1" xmlns="http://www.w3.org/2000/svg" xmlns:xlink="http://www.w3.org/1999/xlink" x="0px" y="0px"
	 viewBox="-260 61.9 757.4 598.1" style="enable-background:new -260 61.9 757.4 598.1;" xml:space="preserve">
<style type="text/css">
	.st0{fill:#F2F2F2;}
	.st1{fill:#9E616A;}
	.st2{fill:#2F2E41;}
	.st3{fill:#E6E6E6;}
	.st4{fill:#6C63FF;}
	.st5{fill:#FFFFFF;}
	.st6{fill:#3F3D56;}
</style>
<path class="st0" d="M-217.7,541.8l-31.6-11c-3.5-17.2-2.7-35,2.3-51.9c12,28.9,49.4,36.9,70.1,60.3c13,14.9,18.5,34.8,15.1,54.2
	l6,23c-31.6-3.6-60.1-20.9-77.9-47.3c-4.9-7.4-8.8-15.3-11.6-23.7C-231.7,544.3-217.7,541.8-217.7,541.8z"/>
<path class="st0" d="M-181.5,472.8l-22.1-25.2c5.5-16.7,14.9-31.8,27.5-44.1c-3.8,31,24.8,56.4,31.4,87c4,19.3-1,39.4-13.6,54.6
	l-6,23c-25.7-18.7-42-47.8-44.5-79.5c-0.6-8.8-0.1-17.7,1.5-26.3C-194.9,468.2-181.5,472.8-181.5,472.8z"/>
<path class="st0" d="M2.9,553.5h-159.6c-4.7,0-8.5,0.9-8.5,2.1V618H11.3v-62.4C11.4,554.5,7.6,553.5,2.9,553.5z"/>
<polygon class="st1" points="-133.4,613.1 -135.7,631.5 -65.6,649 -62.3,621.8 "/>
<path class="st2" d="M-120,608.6l-1.9,29.7l-12.6-1.6l-22.8,25.6c-2.9,3.3-7.9,3.6-11.2,0.7c-2-1.7-2.9-4.3-2.6-6.9l4.3-35.1
	l13.2-4.5l-12.2-3.9l1.6-13.2L-120,608.6z"/>
<polygon class="st1" points="71.3,622.2 89.4,626.7 115.3,559.2 88.7,552.6 "/>
<path class="st2" d="M117.4,651.9l-22.7-25.8l3.1-12.3l-3.2-0.6l0,0l-20-3.7l-6-1.1l-14.5,42.7l12.9,3.2l5.3-11.6l2.2,10.7l0.6,3
	l34.3,8.5c4.3,1.1,8.6-1.5,9.6-5.8C119.8,656.5,119.1,653.9,117.4,651.9L117.4,651.9z"/>
<path class="st2" d="M-80,615.2l6.5-1c-7,7.3-13.8,12.1-20.2,13.6l3.1-11L-80,615.2z"/>
<path class="st2" d="M111,582.2c-6.2,13.8-10.7,22.7-10.7,22.7l-2.2-1.2l-5.8-3l-13.9-7.3l-2.4-1.3l0.7-13.2l3-58.5l1.3-24.6
	l-52.7,28l-62.5,33c-2.6,4.5-5.1,8.8-7.6,13l-42.5-29.1l43.1-62.9l25.1-11.7l-5.4-1c1.4-2,3-3.9,4.7-5.6l1.9-1.1
	c0,0,119.5-65.8,153.9-32.1c3,3,5.2,6.7,6.5,10.7C157.2,470.9,127.8,544.8,111,582.2z"/>
<path class="st2" d="M84.7,644.2c-2.6,3.8-6.1,7-10.2,9.2c-3.5,1.9-7.1,3.4-11,4.5c-50.7,14.8-161.6-14.6-161.6-14.6l4.4-15.4
	l3.1-11l10.5-1.7l6.5-1l78.2-12.3l-21.4-14.8l-25.1-17.2l-42.5-29.1l-50.9-22.9c-59-47-9.6-99.7-9.6-99.7l33-23.4l10.7-7.6
	l65.9,33.7l19.1,45.3l5.9,13.9l38.5,43.8l48.5,55.2l0.4,0.4c1.4,1.1,2.7,2.2,4,3.5c0.5,0.4,0.9,0.9,1.4,1.5
	c4.4,4.7,7.7,10.3,9.8,16.3c1.4,4,2.1,8.2,2.2,12.4l0,0C94.8,622,92.3,632.4,84.7,644.2z"/>
<path class="st3" d="M-167.4,440.4c-2.6-0.8-4-1.8-4.2-3c-0.4-1.9,1.8-3.6,4.2-5.5c1.7-1.4,6.2-3.7,4.6-4.4
	c-24.9-11,35.7-166.7,53.2-184.4c3.6-3.6,3.1-10.9,7.9-17.4c13-17.7,24.4-21,47.1-27.4c1.8-0.5,3.8-1.1,5.8-1.6
	c2.6-0.7-0.1,6.6,1.2,1.7c1.5-5.5,3-11.1,6.8-13.8l0.2-0.2h0.3c6.9,0.5,29.4,4.2,40.9,12.4l0.2,0.1l0.1,0.2c2.1,4,0.6,9.9-0.8,15.7
	c-1.2,4.8,1.7-2.8,2.8-0.3c8.7,18.7,23.8,22.9,23.9,22.9l0.7,0.2l-0.1,0.8c3.9,20.4-23,83.5-28.8,126c-5.9,43.2,27.8,91.8-21.8,83.6
	c0.1,0.4,18.3,37.7,18,38C-9.8,488.4-157.5,443.4-167.4,440.4z"/>
<path class="st1" d="M160.6,211.4c1.4,7.7-3.8,15.1-11.5,16.4c-0.8,0.1-1.7,0.2-2.5,0.2L130,275.5l-15.9-20.8l18.2-42
	c0.5-7.9,7.3-13.8,15.2-13.2C154.1,200,159.5,204.9,160.6,211.4L160.6,211.4z"/>
<path class="st3" d="M87.3,343.8l-30.2-6.5C2.7,320.1-16,298.8-22.1,284c-6.5-15.8-0.6-27.4-0.3-27.8l0.2-0.2l19.5-19
	c9.7-9.4,25.1-9.2,34.5,0.5c0.7,0.7,1.4,1.5,2,2.3l39.6,52.3l18.4-24.9l8.9-7.1l4.8-13.5l18.4-20l21.3,9.9l-8,48.4l-10.7,6.6
	l-0.5,7.1l-0.2,0.2L87.3,343.8z"/>
<path class="st4" d="M-63.8,495.7c-0.1,0-0.3,0-0.4,0c-3.6-0.1-6.8-2-8.8-5c-7.1-10.6-15.9-20.1-25.9-28.1
	c-6.1-4.9-12.4-9.4-18.6-13.7c-15.8-11.3-30.8-21.9-39.1-36.5c-18.1-32,3.2-76.5,33.6-96.5c34.1-22.4,78.9-25.9,122.3-26.4
	c4.5,0,9-0.1,13.5-0.1l0,0c78.1,0,156.1,7.2,233,21.3c25.6,4.7,52.3,10.5,73.8,24.5c21.4,13.9,34.4,35.9,33.1,55.9
	c-1.8,29.2-32.8,51.1-61.1,56.8c-26.9,5.4-54.8,1.8-84.4-2.1c-6.5-0.9-13.3-1.7-20-2.5c-72.6-8.4-208.9,17.5-214.7,18.6l-5.7,1.1
	l-22.2,28.6C-57.4,494.1-60.5,495.7-63.8,495.7z"/>
<path class="st5" d="M259.3,353.1H-47.4c-3.7,0-6.7-3-6.7-6.7s3-6.7,6.7-6.7h306.7c3.7,0,6.7,3,6.7,6.7S263,353,259.3,353.1
	L259.3,353.1z"/>
<path class="st5" d="M259.3,394H-47.4c-3.7,0-6.7-3-6.7-6.7s3-6.7,6.7-6.7l0,0h306.7c3.7,0,6.7,3,6.7,6.7S263,394,259.3,394z"/>
<path class="st5" d="M-11.7,435h-35.7c-3.7,0-6.7-3-6.7-6.7s3-6.7,6.7-6.7h35.7c3.7,0,6.7,3,6.7,6.7S-8,435-11.7,435z"/>
<circle class="st5" cx="161.1" cy="167.6" r="45.7"/>
<path class="st6" d="M161.1,213.8c-25.5,0-46.2-20.7-46.2-46.2s20.7-46.2,46.2-46.2s46.2,20.7,46.2,46.2S186.7,213.8,161.1,213.8z"
	/>
<path class="st5" d="M157.7,185.8c-0.1,0-0.2,0-0.3,0c-1.7-0.1-3.4-0.9-4.4-2.3l-7.6-9.8c-2-2.6-1.6-6.4,1-8.4l0,0l0.3-0.2
	c2.6-2,6.4-1.6,8.4,1l0,0c1.5,1.9,4.2,2.2,6.1,0.8c0.2-0.1,0.3-0.3,0.5-0.4l15.5-16.4c2.3-2.4,6.1-2.5,8.5-0.2l0.3,0.2
	c2.4,2.3,2.5,6.1,0.2,8.4l0,0l-24.1,25.4C160.9,185.1,159.4,185.8,157.7,185.8z"/>
<path class="st1" d="M-73.8,404.3c-7.7-1.3-12.9-8.6-11.7-16.3c0.1-0.8,0.3-1.6,0.6-2.4l-39.3-31.5l24.9-8.1l33.6,31.1
	c7.2,3.1,10.6,11.5,7.5,18.7C-60.9,401.9-67.3,405.4-73.8,404.3z"/>
<path class="st3" d="M-174.5,291.3l16.2-26.3c34.3-45.6,60.5-56.2,76.5-57c17.1-0.9,26,8.5,26.4,8.9l0.1,0.2l11.5,24.7
	c5.7,12.2,0.4,26.7-11.9,32.4c-0.9,0.4-1.8,0.8-2.8,1.1l-62.5,20.1l17.3,25.5l3.8,10.8l11.1,9l12.8,24l-16.4,16.8l-43-23.6
	l-2.6-12.3l-6.6-2.8l-0.1-0.2L-174.5,291.3z"/>
<path id="b7175576-f1ba-43ba-8f76-518314c256be-25" class="st2" d="M47.9,187L47.9,187c4.5,0.4,8.5-2.9,8.9-7.4l0,0l4-45.5
	c0.7-8.1-0.2-16.3-2.7-24.1c-4.9-15.2-15.5-27.9-29.6-35.4c-7.3-3.9-15.2-6.3-23.4-7c-33.6-3-45.8,4.1-66.2,55.4s-4,45.5-4,45.5
	c-0.1,1.1,0,2.2,0.4,3.2c0.7,2,2.1,3.7,4,4.8c1,0.5,2,0.8,3.1,0.9C-17.9,187.3,22.1,197.6,47.9,187L47.9,187z"/>
<path id="a02f472c-6a06-41c7-9b05-293ddf5937fe-26" class="st1" d="M-26.4,110.9c-13.8,20.7-8.2,48.6,12.5,62.4
	c9.9,6.6,22,9,33.7,6.7s21.9-9.1,28.5-19c13.8-20.7,8.1-48.6-12.5-62.4c-9.9-6.6-22-9-33.6-6.7C-9.6,94.1-19.9,101-26.4,110.9
	L-26.4,110.9z"/>
<path id="adbc6b4a-ced6-4270-bb29-8c8f4fd87f84-27" class="st2" d="M74.8,139.1c0.6-6.4-0.2-12.9-2.2-19.1c-0.6-15.1-5-28.7-23.4-28
	c-5.7-3.1-12-4.9-18.4-5.5l-9.1-0.8c-0.1,0-0.2,0-0.3,0c-26.5-2.3-49.8,17.3-52.1,43.8l0,0l-0.1,0.9l19.2,1.8l8.2-17.8l-0.3,18.5
	l9.9,0.9l4.1-9v9.3c14.8,12.9,37.2,13.4,64.5,5.9V139.1z"/>
<path id="e837c95d-b162-450d-9836-a61223397ab5-28" class="st2" d="M13.6,182.6c0.2,1.5-0.1,3-0.7,4.4c-0.3,0.7-0.7,1.3-1.3,1.9
	c-0.4,0.5-0.9,0.9-1.5,1.3c-1.6,1.1-3.5,1.6-5.5,1.5c-0.1,0-0.2,0-0.4,0s-0.2,0-0.4-0.1c-0.1,0-0.2,0-0.4-0.1s-0.2-0.1-0.4-0.1
	l-6.7-1.8l-7.7-20.9l-1.3,18.4l-30.6-8.3l6.8-78.1l52,4.8l-1.4,1.4c-4.7,4.6-8,10.5-9.6,16.9c-1.6,6.5-2,13.2-1.4,19.9
	S5,157.1,7,163.6c1.7,5.7,3.7,11.4,6,16.9C13.3,181.1,13.5,181.9,13.6,182.6z"/>
</svg>
